<?xml version="1.0" encoding="utf-8"?>
<!-- Generator: Adobe Illustrator 16.0.0, SVG Export Plug-In . SVG Version: 6.00 Build 0)  -->
<!DOCTYPE svg PUBLIC "-//W3C//DTD SVG 1.1//EN" "http://www.w3.org/Graphics/SVG/1.1/DTD/svg11.dtd">
<svg version="1.1" id="Capa_1" xmlns="http://www.w3.org/2000/svg" xmlns:xlink="http://www.w3.org/1999/xlink" x="0px" y="0px"
	 width="70px" height="70px" viewBox="0 0 70 70" enable-background="new 0 0 70 70" xml:space="preserve">
<path fill-rule="evenodd" clip-rule="evenodd" fill="#6C8CD8" d="M35.144,47.297c8.067-0.001,16.133-0.019,24.202,0.007
	c3.93,0.013,6.275,2.64,5.76,6.35c-0.363,2.599-3.082,4.403-6.715,4.405c-16.133,0.009-32.268,0.006-48.402,0.004
	c-2.533,0-5.052-2.448-5.211-5.043c-0.195-3.201,2.288-5.702,5.78-5.713C18.753,47.279,26.949,47.297,35.144,47.297z"/>
<path fill-rule="evenodd" clip-rule="evenodd" fill="#6C8CD8" d="M34.98,22.708c-8.063,0-16.125,0.003-24.187,0
	c-3.617-0.001-6.013-2.076-6.015-5.193c-0.001-3.049,2.685-5.558,6.076-5.566c10.11-0.022,20.221-0.007,30.331-0.007
	c6.143,0,12.285-0.008,18.428,0.004c2.973,0.006,5.479,2.48,5.504,5.398c0.027,3.229-2.051,5.346-5.373,5.356
	C51.488,22.724,43.234,22.707,34.98,22.708z"/>
<path fill-rule="evenodd" clip-rule="evenodd" fill="#6C8DD8" d="M35.154,29.956c8.327,0,16.653-0.016,24.979,0.01
	c2.258,0.007,4.283,1.498,4.875,3.438c0.684,2.246-0.111,4.503-2.094,5.905c-1.141,0.807-2.459,1.004-3.811,1.005
	c-16.076,0.006-32.153,0.023-48.228-0.006c-4.868-0.009-7.548-4.037-5.344-7.914c1.066-1.875,2.769-2.464,4.835-2.458
	c8.263,0.028,16.524,0.012,24.787,0.012C35.154,29.951,35.154,29.954,35.154,29.956z"/>
</svg>
