<?xml version="1.0" encoding="utf-8"?>
<!-- Generator: Adobe Illustrator 16.0.0, SVG Export Plug-In . SVG Version: 6.00 Build 0)  -->
<!DOCTYPE svg PUBLIC "-//W3C//DTD SVG 1.1//EN" "http://www.w3.org/Graphics/SVG/1.1/DTD/svg11.dtd">
<svg version="1.1" id="Capa_1" xmlns="http://www.w3.org/2000/svg" xmlns:xlink="http://www.w3.org/1999/xlink" x="0px" y="0px"
	 width="621.062px" height="621.062px" viewBox="545.211 -1479.862 621.062 621.062"
	 enable-background="new 545.211 -1479.862 621.062 621.062" xml:space="preserve">
<path fill="#FFFFFF" d="M-90.221,508.486c38.852-9.742,74.319-27.079,108.03-48.298c29.326-18.458,55.585-40.641,78.952-66.191
	c11.448-12.517,22.254-25.61,31.406-39.938c2.146-3.36,4.567-4.615,8.499-4.632c43.64-0.198,87.279-0.646,130.92-0.783
	c8.453-0.026,16.91-1.97,25.362-0.078c1.272,0.285,2.521,0.68,4.679,1.268c-10.25,10.249-18.688,21.262-28.854,30.704
	c-1.203,2.396-2.716,4.521-5.112,5.875c-2.115,3.415-5.158,5.861-8.292,8.286c-1.784,1.378-3.739,2.863-3.869,5.554
	c-0.029,0.603-8.687,10.103-13.604,13.213c-4.392,2.777-7.26,7.227-10.93,10.792c-23.354,22.691-49.201,42.021-76.457,59.75
	c-28.497,18.536-58.545,34.062-88.96,49.056c-8.284,4.084-16.337,8.583-25.129,11.505c-3.551,1.182-6.96,2.61-10.125,4.607
	c-3.342,2.108-7.84-0.946-10.649,1.781c-3.957,3.842-9.191,4.846-13.824,6.67c-10.796,4.25-21.954,7.788-33.219,10.607
	c-22.372,5.602-44.915,10.528-67.393,15.708c-1.11,0.256-2.302,0.497-3.411,0.367c-8.838-1.039-17.387,1.108-26.041,2.174
	c-5.068,0.624-10.352,0.991-15.268,0.933c-8.988-0.105-17.876,2.016-26.833,0.836c-11.957-1.575-24.024,1.288-35.912-0.656
	c-14.389-2.354-28.896-3.868-43.205-6.906c-6.919-1.469-13.771-3.403-20.802-4.423c-4.063-0.589-7.885-2.3-11.753-3.497
	c-25.136-7.773-49.212-18.318-70.978-33.083c-20.309-13.778-38.486-30.135-53.035-50.318c-9.322-12.932-17.372-26.502-23.542-41.102
	c-4.453-10.536-8.179-21.438-10.405-32.713c-1.955-9.902-4.474-19.852-4.869-29.854c-0.3-7.567-1.771-15.251-0.253-22.921
	c0.695-3.51-1.26-7.041,0.05-10.797c0.845-2.424,1.524-3.496,4.254-3.48c25.825,0.138,51.649,0.137,77.476,0.176
	c2.281,3.529,0.95,7.446,1.062,11.167c0.628,20.992,4.442,41.277,13.304,60.415c14.512,31.339,37.847,54.194,68.053,70.429
	c21.594,11.605,44.658,18.521,68.75,22.616c23.067,3.922,46.177,4.244,69.457,2.802
	C-124.958,515.004-107.453,512.816-90.221,508.486z"/>
<path fill="#6C8CD8" d="M995.869,137.202c3.309-3.005,6.814-3.645,9.922-4.981c23.215-9.99,46.381-20.102,69.771-29.666
	c12.186-4.982,24.123-10.519,36.215-15.696c23.477-10.052,46.896-20.24,70.434-30.16c13.635-5.746,27.227-11.603,40.764-17.578
	c9.346-4.125,18.924-7.665,28.1-12.239c5.982-2.982,12.676-4.521,18.992-6.861c3.334-1.235,6.625-2.654,9.775-4.295
	c1.307-0.68,2.541-2.325,3.883-1.153c1.51,1.319,1.125,3.457,0.186,5.084c-1.791,3.098-3.813,6.001-5.408,9.28
	c-3.73,7.656-8.752,14.695-12.311,22.417c-2.176,4.727-4.969,9.169-7.375,13.667c-3.59,6.708-7.01,13.598-10.965,20.157
	c-3.193,5.296-5.84,11.031-8.947,16.269c-2.623,4.418-3.705,9.906-7.791,13.402c-1.654,1.414-1.102,3.432-1.938,4.906
	c-3.447,6.09-6.266,12.606-10.096,18.37c-5.043,7.588-8.564,15.887-12.986,23.744c-1.129,2.006-2.914,3.468-3.645,5.854
	c-7.816,25.521-20.529,49-30.773,73.513c-7.66,18.335-16.365,36.209-23.936,54.559c-7.584,18.383-16.346,36.228-23.973,54.568
	c-8.076,19.417-17.385,38.289-25.451,57.678c-7.697,18.5-16.83,36.376-24.094,55c-7.578,19.431-18.248,37.404-25.436,56.954
	c-1.094,2.974-3.043,3.854-6.113,3.883c-36.313,0.339-72.623,0.753-108.934,1.271c-3.883,0.056-4.574-0.722-2.879-4.398
	c4.879-10.572,9.637-21.215,14.021-31.999c12.232-30.087,26-59.5,38.775-89.34c7.684-17.948,15.959-35.629,23.535-53.626
	c11.189-26.589,22.959-52.937,34.535-79.363c4.283-9.779,8.744-19.48,13.078-29.237c5.59-12.582,11.861-24.922,16.514-37.843
	c5.85-16.24,13.846-31.482,20.305-47.409c2.773-6.85,5.775-13.551,9.191-20.103c2.744-5.264,1.525-7.32-4.146-6.768
	c-7.832,0.764-15.635,1.959-23.395,3.299c-5.49,0.947-11.041,1.328-16.545,2.238c-13.109,2.169-26.395,3.176-39.574,5.04
	C1010.527,136.578,1003.781,139.28,995.869,137.202z"/>
<path fill="#6C8DD8" d="M1793.16,318.606c-3.58,9.427-7.189,18.841-10.734,28.281c-10.877,28.965-21.795,57.917-32.502,86.944
	c-1.221,3.312-2.893,4.145-6.18,4.124c-21.492-0.131-42.988-0.061-64.482-0.07c-5.791-0.002-5.947-0.188-3.971-5.451
	c12.639-33.633,25.336-67.245,37.951-100.889c15.123-40.335,30.176-80.699,45.275-121.044c5.191-13.866,10.496-27.688,15.588-41.589
	c0.836-2.282,1.979-3.145,4.322-3.14c22.828,0.048,45.656,0.066,68.482-0.009c3.027-0.011,3.516,1.46,3.588,4.021
	c0.582,20.794,1.227,41.586,1.926,62.377c0.592,17.583,1.279,35.162,2.74,52.987c3.359-8.913,6.727-17.823,10.084-26.737
	c11.137-29.581,22.299-59.154,33.357-88.764c0.908-2.431,1.779-3.924,4.793-3.909c22.994,0.119,45.988,0.072,68.982,0.095
	c0.645,0.001,1.285,0.183,2.424,0.354c-3.463,9.398-6.799,18.587-10.23,27.739c-17.063,45.48-34.15,90.953-51.234,136.427
	c-12.93,34.416-25.934,68.805-38.697,103.281c-1.313,3.547-3.121,4.34-6.561,4.32c-22.658-0.13-45.32-0.177-67.98,0.029
	c-4.258,0.039-5.271-1.298-5.244-5.375c0.172-25.492,0.396-50.991-0.047-76.478C1794.593,343.692,1794.476,331.235,1793.16,318.606z
	"/>
<path fill="#6C8CD8" d="M952.968,248.099c-12.33,0-24.66-0.112-36.988,0.066c-3.785,0.056-5.082-0.479-3.447-4.601
	c3.246-8.188,6.275-16.486,8.881-24.899c2.916-9.418-1.008-13.752-10.791-12.375c-7.021,0.987-12.301,4.826-16.23,10.598
	c-4.777,7.021-7.281,14.942-8.668,23.205c-0.846,5.048,0.693,9.513,4.457,13.17c4.465,4.34,9.707,7.54,15.021,10.675
	c15.063,8.886,29.666,18.364,43.398,29.323c15.869,12.664,20.082,28.354,16.021,47.52c-3.967,18.724-10.719,36.317-19.781,53.092
	c-10.051,18.608-26.268,29.618-45.488,36.983c-20.088,7.697-40.826,11.793-62.359,12.418c-17.568,0.51-34.895-0.468-51.855-5.382
	c-8.4-2.435-16.174-6.21-23.207-11.375c-11.718-8.605-14.321-20.604-12.355-34.208c2.475-17.12,9.02-32.985,15.014-49.028
	c0.928-2.481,2.457-3.146,4.922-3.14c24.992,0.059,49.982,0.099,74.975-0.022c4.23-0.021,4.133,1.413,2.928,4.757
	c-4.846,13.448-10.982,26.448-14.379,40.399c-2.025,8.313,0.604,11.458,9.07,11.837c9.004,0.404,15.945-3.354,20.859-10.532
	c6.605-9.647,9.895-20.61,11.408-32.143c0.871-6.633-1.926-11.431-6.994-15.539c-10.764-8.728-22.486-16.058-33.895-23.851
	c-7.008-4.786-13.787-9.902-20.768-14.73c-14.309-9.898-19.648-24.048-16.945-40.482c4.148-25.222,13.84-48.369,31.572-67.266
	c13.041-13.896,30.061-21.388,48.17-26.027c34.305-8.789,68.734-9.813,102.992,0.451c7.521,2.254,14.469,5.854,20.545,11.014
	c7.551,6.407,10.172,14.556,8.896,24.151c-2.014,15.14-7.486,29.271-12.672,43.49c-1.027,2.821-3.188,2.445-5.316,2.447
	C977.626,248.103,965.296,248.099,952.968,248.099z"/>
<path fill="#FFFFFF" d="M253.986,277.208c15.111,0,29.419,0,43.727-0.001c6.164,0,12.329,0.029,18.493-0.021
	c2.151-0.019,3.025,0.294,2.054,2.836c-6.285,16.445-12.481,32.925-18.507,49.468c-0.987,2.712-2.767,2.39-4.714,2.391
	c-11.996,0.012-23.99,0.007-35.986,0.007c-36.651,0-73.304-0.085-109.956,0.103c-4.822,0.025-4.95-1.179-3.44-5.192
	c32.45-86.305,64.785-172.653,97.146-258.991c0.525-1.4,1.334-2.733,1.624-4.175c0.661-3.291,2.612-3.946,5.742-3.94
	c46.647,0.096,93.296,0.117,139.943-0.021c4.33-0.014,4.543,1.055,3.122,4.714c-5.954,15.332-11.735,30.733-17.342,46.195
	c-1.103,3.04-2.563,3.982-5.725,3.954c-16.992-0.155-33.987,0.019-50.979-0.157c-3.217-0.033-4.69,1.056-5.756,3.976
	c-5.235,14.356-10.529,28.693-16.078,42.93c-1.547,3.968-0.648,4.604,3.32,4.55c15.491-0.212,30.986-0.053,46.48-0.124
	c2.797-0.014,4.443-0.104,2.964,3.689c-5.792,14.859-11.341,29.815-16.792,44.805c-1.026,2.824-2.439,3.72-5.4,3.691
	c-15.826-0.146-31.652-0.083-47.479-0.054c-2.052,0.003-4.045-0.516-5.147,2.494C268.458,239.025,261.359,257.625,253.986,277.208z"
	/>
<path fill="#6C8CD8" d="M1378.955,220.251c-7.496,0.001-14.994,0.088-22.488-0.043c-2.922-0.053-4.385,0.956-5.451,3.822
	c-13.963,37.568-28.061,75.087-42.143,112.611c-12.154,32.389-24.381,64.75-36.426,97.179c-1.195,3.224-2.811,4.164-6.16,4.146
	c-26.818-0.142-53.639-0.132-80.459-0.019c-3.664,0.017-4.506-0.527-3.07-4.338c26.043-69.099,51.945-138.249,77.865-207.394
	c2.229-5.945,2.184-5.965-4.34-5.965c-13.826-0.003-27.654-0.104-41.479,0.064c-3.863,0.048-4.484-0.912-3.096-4.506
	c6-15.511,11.822-31.092,17.549-46.706c0.994-2.712,2.531-3.35,5.203-3.347c62.303,0.062,124.604,0.064,186.906-0.002
	c3.445-0.004,4.432,0.678,3.064,4.224c-6.033,15.673-11.906,31.409-17.688,47.179c-0.922,2.518-2.314,3.181-4.805,3.14
	C1394.281,220.17,1386.617,220.251,1378.955,220.251z"/>
<path fill="#FFFFFF" d="M61.947,331.887c-22.487,0-44.976-0.091-67.46,0.081c-4.208,0.032-4.629-0.896-3.19-4.723
	C24.331,239.406,57.26,151.53,90.103,63.621c1.141-3.054,2.632-3.948,5.771-3.935c26.817,0.119,53.636,0.136,80.453-0.004
	c3.817-0.02,4.929,0.363,3.361,4.506c-15.525,41.003-30.859,82.079-46.247,123.135c-10.783,28.771-21.53,57.558-32.397,86.298
	c-1.102,2.917-0.655,3.672,2.504,3.646c15.324-0.126,30.649,0.005,45.975-0.107c3.44-0.025,4.798,0.189,3.178,4.302
	c-6.028,15.297-11.771,30.712-17.3,46.197c-1.256,3.52-3.041,4.324-6.489,4.303C106.588,331.817,84.267,331.887,61.947,331.887z"/>
<path fill="#6C8CD8" d="M1378.062,437.889c-13.16,0.001-26.324,0.004-39.486-0.001c-5.756-0.002-5.748-0.006-3.797-5.211
	c24.566-65.579,49.127-131.162,73.701-196.739c8.23-21.96,16.59-43.873,24.646-65.896c1.289-3.521,3.113-4.322,6.557-4.306
	c26.492,0.126,52.984,0.134,79.477,0.001c3.982-0.02,5.225,0.446,3.563,4.818c-12.939,34.056-25.658,68.196-38.43,102.317
	c-17.785,47.513-35.553,95.031-53.34,142.542c-2.334,6.233-4.969,12.363-7.025,18.684c-1.053,3.23-2.838,3.875-5.877,3.845
	C1404.722,437.817,1391.392,437.889,1378.062,437.889z"/>
<path fill="#FFFFFF" d="M73.431,391.943c-6.916,9.399-16.336,16.267-25.09,23.631c-10.945,9.208-23.106,16.971-34.684,25.412
	c-15.159,11.055-32.032,18.816-48.537,27.144c-11.647,5.876-24.167,10.334-36.683,14.528c-9.747,3.268-19.7,5.614-29.479,8.581
	c-7.654,2.322-15.534,3.59-23.229,5.147c-5.569,1.128-11.484,2.864-17.492,2.252c-2.97-0.304-5.99-0.233-8.73,1.321
	c-8.051-0.123-16.147-1.602-24.139,0.208c-6.437,1.456-12.67,1.831-18.933-0.742c-4.999-2.056-10.326-2.204-15.646-1.995
	c-2.191,0.087-4.277-0.226-6.308-0.982c-1.025-0.159-1.514-0.71-0.885-1.661c0.892-1.351,2.366-1.864,3.859-2.058
	c11.677-1.51,22.178-6.722,33.145-10.467c2.689-0.919,5.047-2.221,6.926,1.782c1.336,2.845,4.928,1.958,9.358-1.81
	c5.027-3.406,10.95-4.702,16.516-6.772c9.488-3.534,18.472-8.127,27.563-12.48c12.133-5.809,24.809-10.263,37.157-15.521
	c3.237-1.379,6.137-4.398,10.166-2.267c3.894,4.095,6.92,8.851,9.292,13.898c1.901,4.048,4.896,3.897,8.231,3.27
	c1.688-0.316,3.048-1.643,3.534-3.216c0.489-1.581-0.846-2.688-2.043-3.636c-3.889-3.081-4.885-8.044-7.692-11.837
	c-0.372-1.232-0.455-2.487-0.34-3.762c0.9-5.461,5.293-6.794,9.672-7.93c2.356-0.609,4.38,0.507,5.213,2.793
	c1.666,4.571,4.72,8.341,6.925,12.595c2.446,4.718,3.354,4.894,7.954,2.112c1.721-1.009,2.963-1.988,1.492-4.313
	c-2.04-3.223-2.879-7.1-5.009-10.267c-2.159-3.211-1.314-5.23,1.937-6.673c7.601-3.37,14.915-7.391,22.566-10.592
	c12.904-5.397,25.326-11.872,38.25-17.145c13.929-5.681,26.422-14.047,40.079-20.165c2.597-1.162,5.261-2.169,8-2.821
	c3.169-0.757,5.851-2.176,8.326-4.257c1.132-0.951,2.793-1.527,4.011-0.001c1.109,1.39,0.742,3.222-0.473,4.056
	c-5.694,3.91-9.638,9.516-14.384,14.339C73.365,392.119,73.933,391.503,73.431,391.943z"/>
<path fill="#FFFFFF" d="M73.431,391.943c3.108-6.021,8.169-10.237,13.354-14.308c1.377-1.081,2.2-2.432,1.196-3.771
	c-1.091-1.457-2.968-0.09-3.311,0.688c-1.605,3.633-5.115,3.186-7.948,4.172c-12.76,4.443-24.438,11.115-36.095,17.773
	c-5.631,3.218-11.807,5.058-17.591,7.918c-15.367,7.602-31.65,13.257-46.718,21.548c-0.718,0.395-1.52,0.663-2.311,0.892
	c-9.918,2.846-10.045,3.006-5.424,11.637c1.241,2.317,1.688,4.911,3.334,7.139c1.743,2.356-0.637,3.411-2.485,4.28
	c-0.558-0.354-0.575-0.736-0.056-1.146c1.412-1.233,1.009-2.348,0.165-3.854c-4.751-8.478-9.308-17.063-14.012-25.567
	c-2.726-4.928-2.53-5.659,2.865-7.92c13.733-5.757,25.377-14.782,37.119-23.662c2.241-1.694,4.596-3.239,6.897-4.854
	c5.101-4.19,10.871-7.646,15.171-12.713c3.276-3.86,7.513-4.404,11.207-2.48c7.895,4.11,16.629,5.902,24.571,9.834
	c3.967,1.964,8.633,4.113,12.511-0.735c2.518-4.882,2.056-5.938-3.212-6.337c-2.369-0.18-3.937-1.223-5.161-3.087
	c-0.992-2.277-0.032-4.053,1.918-4.928c4.22-1.895,8.113-5.363,13.391-3.078c1.321,0.572,2.93,0.256,4.355-0.273
	c1.179-0.161,2.212-0.6,3.073-1.467c1.174-1.185,2.55-2.293,2.023-4.225c-0.479-1.756-2.12-1.883-3.545-2.273
	c-1.755-0.479-3.622-0.57-5.284-1.334c-1.102-0.507-2.03-1.292-0.921-2.666c12.282-0.065,24.564-0.14,36.847-0.176
	c0.933-0.003,2.175-0.394,2.699,0.663c0.688,1.386-0.6,2.316-1.47,2.746c-3.614,1.779-4.744,5.262-6.547,8.431
	c-2.312,4.059-5.99,7.163-8.909,10.819c-5.836,7.312-12.788,13.758-18.818,20.984C75.582,391.486,74.846,392.485,73.431,391.943z"/>
<path fill="#FFFFFF" d="M-317.487,436.896c-3.106-6.752-9.352-11.912-10.029-19.906c-0.241-2.846,0.673-4.323,3.58-5.513
	c11.316-4.627,22.838-8.67,34.272-12.953c3.617-1.354,7.301-2.691,10.968-3.985c4.183-1.476,7.677-0.608,10.575,3.02
	c2.268,2.835,4.843,5.422,7.867,7.553c5.741,4.043,5.685,4.397-0.361,8.72c-2.278-1.438-4.517-0.44-6.729,0.166
	c-7.235,1.986-13.907,5.466-20.955,7.976c-6.571,2.342-13.21,4.495-19.744,6.954C-312.208,430.491-315.968,432.303-317.487,436.896z
	"/>
<path fill="#FFFFFF" d="M-265.799,480.075c-0.381-2.99-3.948-0.786-4.829-2.961c-1.396-2.648,0.209-4.045,2.232-5.187
	c3.495-1.971,7.296-3.231,11.015-4.688c15.495-6.063,31.608-10.625,46.646-17.692c7.689-3.615,15.207-4.19,23.176-3.905
	c4.439,0.159,5.49,1.405,4.188,5.643c-1.145,3.732-1.792,7.765-4.537,10.862c-3.891-1.331-7.6-0.409-11.099,1.243
	c-14.612,6.896-30.41,10.752-45.022,17.658c-3.146,1.485-6.335,2.94-9.613,4.156C-257.776,483.69-261.052,480.14-265.799,480.075z"
	/>
<path fill="#FFFFFF" d="M-83.497,347.074c6.029,0,12.06,0,18.55,0c-6.696,6.083-10.851,13.055-13.541,20.958
	c-0.899-0.713-1.054-1.731-0.786-2.695c1.157-4.168-0.727-4.464-3.675-2.745c-5.921,3.453-12.372,5.86-18.607,9.372
	c5.641,0.776,8.641,4.543,11.511,8.425c1.086,1.469,2.168,3.089,0.247,4.789c-2.7-0.64-3.853-3.044-5.418-4.898
	c-2.316-2.74-5.075-4.181-8.688-3.996c-6.59,0.338-13.277-0.924-19.704,1.795c-8.324,3.522-14.943,8.494-17.351,17.79
	c-1.958,7.563-5.027,14.782-7.217,22.281c-0.362,1.239-0.477,2.701-2.167,2.996c-2.35-2.283-1.371-4.919-0.597-7.392
	c1.928-6.156,3.903-12.297,5.748-18.479c0.411-1.378,1.233-2.696,0.823-4.45c-4.061,0.148-6.591,2.22-8.159,5.58
	c-2.517,5.391-5.157,10.724-7.14,16.354c-0.648,1.846-0.85,4.453-3.962,3.994c-1.059-1.639-0.294-3.232,0.203-4.777
	c2.643-8.219,5.831-16.248,8.542-24.441c0.11-0.657,0.308,0.155,0.163-0.448c-1.854-7.753,4-9.188,9.12-11.507
	c19.695-8.922,39.558-17.478,59.09-26.762C-85.458,348.318-84.366,347.888-83.497,347.074z"/>
<path fill="#FFFFFF" d="M-234.542,399.924c7.063-8.019,16.337-13.421,24.205-20.492c4.756-4.274,10.537-7.438,13.581-13.534
	c0.998-2,2.993-3.548,5.232-4.465c5.521-2.261,11.024-4.563,16.561-6.789c2.738-1.101,5.438-0.93,8.221,0.172
	c14.315,5.671,28.947,8.265,44.227,4.323c1.258-0.324,2.645-0.146,3.972-0.202c-0.007,2.414-2.104,2.303-3.534,2.683
	c-3.856,1.025-7.788,2.006-11.808,1.632c-9.165-0.852-16.688,3.661-24.563,7.151c-3.01,1.334-2.375,4-2.793,6.33
	c-5.396-1.406-10.893-1.515-16.438-1.542c-4.87-0.023-9.056,1.578-13.075,4.07c-5.955,3.691-10.999,8.517-16.362,12.949
	c-1.766,1.459-3.516,3.101-6.03,3.227c-5.663-1.025-10.474,1.682-15.497,3.506C-230.53,399.628-232.275,401.441-234.542,399.924z"/>
<path fill="#FFFFFF" d="M-188.567,461.896c1.371-3.868,2.646-7.773,4.144-11.591c1.15-2.935-0.241-3.059-2.689-3.418
	c-11.657-1.71-21.496,3.425-31.772,7.558c-14.613,5.876-29.548,10.944-44.251,16.604c-2.975,1.145-7.235,1.313-7.491,6.067
	c-1.517-1.247-4.034-0.752-5.038-2.894c-3.395-2.508-6.768-5.046-10.235-7.466c-0.181-0.504-0.188-1.004-0.026-1.514
	c3.514-4.301,8.926-5.154,13.641-6.636c15.856-4.977,30.96-11.868,46.552-17.494c4.725-1.705,9.021-1.623,13.909,0.315
	c6.391,2.534,13.281,3.939,20.349,3.085c1.334-0.038,2.667-0.013,3.996,0.04c6.416,0.252,8.313,2.718,5.885,8.542
	c-3.018,7.236-5.238,14.729-7.874,22.088c-0.718,2.005-1.261,4.216-3.708,4.965c-0.84-0.369-1.179-1.097-1.377-1.924
	c-0.325-2.202,0.456-4.213,1.084-6.253C-191.675,468.695-192.169,464.294-188.567,461.896z"/>
<path fill="#FFFFFF" d="M-317.487,436.896c-0.649-3.679,0.854-5.91,4.37-7.191c8.535-3.109,16.911-6.684,25.535-9.514
	c7.69-2.524,14.816-6.521,22.76-8.354c2.174-0.503,3.983-1.188,4.209,1.994c-8.862,7.44-17.765,14.833-26.532,22.383
	c-1.13,0.973-3.662,1.716-2.257,4.176c1.337,2.341,3.191,0.669,4.847,0.483c-0.378,3.918-3.183,3.577-5.259,2.277
	c-4.907-3.073-8.826-0.135-13.067,1.387c-2.714,0.974-1.49,3.752-2.659,5.413C-310.908,446.865-313.673,441.401-317.487,436.896z"/>
<path fill="#FFFFFF" d="M-305.542,449.949c-2.516-3.927-0.447-5.986,3.135-7.023c4.394-1.271,8.665-5.344,13.495-0.416
	c1.305,1.331,3.451,0.434,4.355-1.637c2.738-3.413,6.816-5.132,10.039-7.936c5.733-5.977,13.78-6.962,21.016-9.678
	c1.408-0.529,3.197-0.688,4.051,0.851c1.272,2.29-0.825,3.583-1.991,5.101c-6.709,5.614-13.091,11.61-19.611,17.448
	c-1.521,1.36-3.332,2.114-5.087,3.025c-0.732,0.38-1.558,1.014-1.274,1.91c0.377,1.201,1.54,1.003,2.513,0.858
	c1.735-0.257,2.983-1.367,4.15-2.55c2.465-2.493,5.488-4.238,8.301-6.264c1.192-0.858,2.434-1.853,4.043-0.818
	c0.179,0.48,0.297,1.085-0.016,1.429c-4.457,4.904-9.561,9.09-15.341,12.266c-2.688,1.478-5.375-0.035-7.8-1.796
	c-2.472-1.794-10.813-0.479-12.432,1.801c-1.084,1.526,1.338,2.554,0.729,4.072c-0.155,0.179-0.313,0.355-0.469,0.534
	c-2.59-1.318-5.05-2.801-6.722-5.287c-1.512-2.124-3.631-3.725-5.087-5.896L-305.542,449.949z"/>
<path fill="#FFFFFF" d="M-161.424,376.727c-2.833-3.839-1.306-5.931,2.616-7.742c8.732-4.033,17.271-8.104,27.421-7.211
	c4.297,0.378,8.813-0.729,12.841-2.836c9.312-2.381,18.303-5.55,26.387-10.885c2.764-1.823,5.742-0.959,8.663-0.979
	c-1.639,4.818-6.671,4.351-10.102,6.23c-13.912,7.626-28.959,12.84-43.23,19.737c-4.317,2.087-8.704,4.057-13.156,5.831
	c-3.009,1.198-5.261,2.292-2.758,5.994c0.604,0.892,0.393,2.293-0.881,3.02C-156.137,384.105-158.361,380.122-161.424,376.727z"/>
<path fill="#FFFFFF" d="M-252.513,428.949c0.362-0.551,0.719-1.104,1.087-1.65c0.6-0.889,2.178-1.61,1.155-2.854
	c-0.806-0.976-2.163-0.469-3.257,0.011c-6.912,3.037-14.558,4.26-20.989,8.482c5.796-7.126,13.774-11.727,20.586-17.682
	c6.195-5.417,12.905-10.245,19.388-15.332c5.372-1.664,10.23-4.802,15.837-5.711c1.67-0.271,3.88-2.083,5.214,0.757
	c0.148,3.419-2.644,4.808-4.758,6.456c-9.97,7.77-18.982,16.62-28.499,24.899C-248.361,427.73-249.553,430.38-252.513,428.949z"/>
<path fill="#FFFFFF" d="M58.394,367.004c1.099,2.105,2.852,2.718,5.186,2.837c5.462,0.277,6.153,2.165,2.817,7.036
	c-0.522-0.646-0.558-1.272,0.076-1.871c0.138-1.806-0.2-3.695-2.218-3.859c-3.396-0.276-6.195-2.089-9.283-2.964
	c-8.771-2.486-17.318-5.674-26.026-8.204c-7.185-2.086-14.065-5.079-21.418-6.728c-5.727-1.285-11.137-3.982-17.474-6.346
	c14.246,0,27.72,0.34,41.166-0.121c8.79-0.3,16.615,2.884,24.717,5.164c6.203,1.747,12.276,3.956,18.421,5.917
	c1.463,0.467,2.972,0.397,4.386-0.251c1.22-0.559,2.495-1.222,2.646-2.723c0.188-1.846-1.481-2-2.656-2.4
	c-4.684-1.594-9.397-3.096-14.102-5.349c2.627,0,5.253,0,7.88,0c0.392,2.104,2.11,2.454,3.755,2.6
	c2.983,0.266,6.707-0.101,7.063,3.831c0.324,3.583-2.752,5.331-5.889,6.422c-5.576,0.899-10.508-1.942-15.787-2.797
	c-5.378-0.871-10.589-2.843-15.725-4.506c-6.592-2.137-11.221,0.462-16.721,3.511c5.354,3.329,11.221,4.309,16.672,6.232
	C50.069,363.913,54.223,365.481,58.394,367.004z"/>
<path fill="#FFFFFF" d="M-30.622,448.764c0.02,0.382,0.038,0.765,0.056,1.146c-5.257,3.385-6.781,2.9-9.348-2.521
	c-2.111-4.461-5.69-8.115-7.14-12.986c-0.438-1.472-2.111-1.771-3.382-1.391c-3.896,1.17-8.25,1.881-9.202,6.979
	c-3.569-0.209-4.479-3.254-5.423-5.708c-2.19-5.689-5.444-10.869-7.42-16.688c-1.299-3.822-0.66-6.17,2.781-7.681
	c2.829-1.24,5.445-3.326,8.847-2.853c1.482,0.352,2.063,1.669,2.56,2.81c3.338,7.657,8.073,14.561,11.8,22.004
	c2.654,4.697,5.729,9.215,7.838,14.146C-36.755,450.46-34.465,451.247-30.622,448.764z"/>
<path fill="#FFFFFF" d="M-89.517,384.879c-1.46-6.157-5.941-10.226-12.136-11.012c-0.93-0.117-2.327,0.222-2.362-1.072
	c-0.021-0.762,0.848-1.9,1.607-2.273c7.228-3.546,14.451-7.114,21.829-10.326c2.148-0.935,4.517-0.59,3.089,3.046
	c-0.591,1.503-1.356,3.054-0.998,4.79c-0.452,4.573,1.904,8.111,4.069,11.835c4.3,7.396,8.329,14.948,12.433,22.457
	c0.385,0.705,0.502,1.558,0.743,2.34c-0.167,0.177-0.335,0.352-0.502,0.527c-2.239-0.11-3.039-1.885-3.715-3.521
	c-1.527-3.698-3.705-6.997-5.918-10.284c-2.048-3.744-3.019-8.023-6.167-11.247c-2.293-2.348-4.357-2.414-7.028-0.841
	c-2.902,1.708-2.425,3.859-1.446,6.395c1.14,2.955,3.5,5.799,1.297,9.249C-89.14,392.931-89.861,389.158-89.517,384.879z"/>
<path fill="#FFFFFF" d="M-216.447,495.88c5.406,1.146,10.905,0.813,16.371,1.021c3.513,0.133,6.866,0.646,9.937,2.641
	c2.99,1.94,6.63,1.875,9.693,0.938c10.004-3.057,19.953-1.618,29.954-0.521c-0.114,0.119-0.239,0.354-0.343,0.344
	c-12.425-1.154-24.748,2.428-37.078,1.201c-9.674-0.964-19.2-3.304-28.89-4.629c-7.327-1.004-14.961-2.932-21.967-5.651
	c-3.909-1.52-8.673-1.716-11.784-5.207c-0.364-0.487-0.333-0.947,0.093-1.381c4.28-0.423,7.572,2.628,11.551,3.279
	c5.998,1.508,11.663,4.236,17.922,4.778C-218.895,492.875-217.245,493.798-216.447,495.88z"/>
<path fill="#FFFFFF" d="M66.473,375.007c-0.024,0.624-0.052,1.248-0.077,1.871c-4.335,4.352-7.037,4.943-13.235,1.724
	c-6.624-3.441-13.782-5.283-20.695-7.858c-1.347-0.501-2.394-2.031-3.731-2.287c-3.713-0.709-7.243-1.193-10.539,2.151
	c-4.68,4.749-9.615,9.368-15.78,12.3c5.449-6.211,12.559-10.572,18.338-16.432c1.382-1.403,3.535-0.966,5.239-0.349
	c6.883,2.489,13.72,5.105,20.559,7.717c3.479,1.327,6.923,2.74,10.385,4.106C60.898,379.516,64.047,378.431,66.473,375.007z"/>
<path fill="#FFFFFF" d="M-46.493,431.875c-5.255-6.137-8.102-13.686-12.073-20.574c-0.651-1.13-1.316-2.251-1.975-3.375
	c-0.962-0.688-1.98-1.35-1.257-2.793c0.187-0.155,0.37-0.312,0.554-0.469C-55.044,413.039-50.26,422.182-46.493,431.875z"/>
<path fill="#FFFFFF" d="M-250.527,484.924c-0.009,0.362-0.018,0.728-0.025,1.092c-3.877,1.498-6.115-2.221-9.212-3.199
	c-1.904-0.601-4.212-1.418-6.033-2.742c5.132-1.032,8.366,2.865,12.371,4.762C-252.442,484.244-251.467,484.022-250.527,484.924z"/>
<path fill="#FFFFFF" d="M-285.458,466.867c4.308,1.063,6.898,4.406,9.791,7.353c-3.857-1.175-6.52-4.292-9.964-6.139
	C-286.06,467.607-286.001,467.202-285.458,466.867z"/>
<path fill="#FFFFFF" d="M-285.458,466.867c-0.058,0.404-0.114,0.81-0.173,1.213c-2.483-2.57-6.522-3.33-8.104-6.954
	c-0.001,0,0.338-0.324,0.338-0.324c3.474,0.391,5.946,2.295,7.787,5.155C-285.558,466.262-285.507,466.565-285.458,466.867z"/>
<path fill="#FFFFFF" d="M-305.542,449.944c2.276,1.465,4.392,3.069,5.086,5.896C-302.687,454.338-304.897,452.816-305.542,449.944z"
	/>
<path fill="#FFFFFF" d="M-31.283,53.715c17.548,0.332,35.242,2.004,51.831,9.467c22.281,10.023,31.795,29.367,25.875,53.071
	c-5.488,21.978-13.828,43.025-21.807,64.176c-10.615,28.137-21.023,56.342-32.558,84.138
	c-10.915,26.306-29.258,45.286-54.657,56.962c-37.702,17.332-77.011,21.551-117.343,10.279
	c-16.267-4.545-29.272-13.405-35.187-30.317c-3.654-10.451-2.154-20.667,0.838-30.9c8.826-30.177,20.721-59.261,31.592-88.708
	c6.619-17.925,13.905-35.591,20.958-53.348c12.447-31.333,35.354-51.324,66.041-63.367C-75.131,57.096-53.633,54.047-31.283,53.715z
	 M-105.2,282.649c3.522-5.869,6.279-12.101,8.686-18.471c15.888-42.085,31.719-84.191,47.511-126.313
	c3.435-9.162,7.224-18.224,9.229-27.858c1.352-6.484-1.063-9.469-7.696-9.663c-7.252-0.211-12.926,2.659-16.734,8.894
	c-3.389,5.551-5.916,11.524-8.198,17.592c-12.982,34.492-26.028,68.963-38.841,103.519c-6.114,16.493-13.094,32.693-17.577,49.759
	c-2.104,8.009,0.258,11.052,8.283,11.075C-113.874,291.129-108.692,288.467-105.2,282.649z"/>
<path fill="#6C8CD8" d="M792.419,208.776c-0.213,11.19-3.67,20.961-7.029,30.688c-15.584,45.144-32.025,89.965-50.693,133.947
	c-12.922,30.444-36.632,49.082-66.783,59.867c-33.024,11.813-66.975,13.882-101.169,5.309
	c-14.569-3.654-27.394-10.447-34.906-24.497c-5.257-9.835-6.458-20.135-3.752-30.934c6.04-24.111,15.185-47.182,23.902-70.375
	c9.776-26.006,19.636-51.979,30.039-77.757c12.16-30.134,33.424-50.643,63.109-62.435c37.193-14.774,75.35-17.685,113.86-5.556
	c17.502,5.512,29.629,16.943,32.869,35.963C792.228,205.122,792.285,207.295,792.419,208.776z M638.924,388.461
	c2.311-4.226,4.58-8.52,6.337-12.991c19.213-48.879,37.152-98.24,55.578-147.417c1.627-4.343,3.089-8.799,3.542-13.465
	c0.517-5.3-1.046-7.576-6.287-8.144c-7.081-0.765-13.181,1.471-17.378,7.506c-3.049,4.386-5.327,9.236-7.205,14.217
	c-14.836,39.343-29.621,78.704-44.369,118.079c-5.012,13.379-10.716,26.528-13.979,40.5c-1.787,7.644,0.585,10.406,8.54,10.38
	C630.379,397.059,635.674,394.409,638.924,388.461z"/>
<path fill="#6C8CD8" d="M1466.251,394.548c0.318-11.547,3.992-21.991,7.588-32.309c15.441-44.308,31.572-88.369,49.84-131.604
	c14.154-33.499,40.85-52.684,74.498-62.947c30.313-9.245,61.211-10.732,92.217-3.326c9.934,2.373,19.336,6.226,27.1,13.266
	c13.277,12.041,17.244,26.89,12.834,43.961c-6.756,26.146-16.902,51.157-26.324,76.396c-9.016,24.155-18.258,48.217-28.043,72.085
	c-13.809,33.688-39.527,53.425-72.881,64.862c-18.154,6.226-37.004,8.625-56.016,8.643c-19.529,0.02-39-1.747-56.742-11.221
	C1475.113,424.234,1467.031,411.495,1466.251,394.548z M1578.798,388.108c2.957-5.045,5.416-10.314,7.479-15.771
	c16.221-42.958,32.465-85.905,48.588-128.899c3.322-8.865,6.971-17.644,8.949-26.966c1.439-6.779-1.248-10.329-8.178-10.239
	c-6.729,0.087-12.283,2.752-15.957,8.634c-3.547,5.675-6.127,11.82-8.471,18.057c-12.174,32.385-24.383,64.756-36.412,97.194
	c-6.826,18.399-14.518,36.496-19.826,55.433c-2.334,8.325,0.039,11.536,8.244,11.559
	C1570.156,397.139,1575.289,394.099,1578.798,388.108z"/>
<path fill="#FFFFFF" d="M-443.693,331.888c7.98-21.281,15.619-41.644,23.255-62.009c25.669-68.474,51.363-136.938,76.931-205.447
	c1.292-3.463,2.833-4.814,6.692-4.77c36.315,0.432,72.643-0.572,108.953,0.63c12.154,0.401,24.274,1.563,35.931,5.426
	c21.613,7.162,28.938,19.301,23.366,41.22c-6.315,24.842-15.719,48.667-26.392,71.968c-11.039,24.099-31.427,35.137-56.167,40.049
	c-18.757,3.723-37.756,3.747-56.745,3.437c-4.063-0.064-5.767,1.238-7.142,4.958c-12.326,33.343-24.924,66.586-37.238,99.935
	c-1.321,3.581-2.972,4.723-6.761,4.696c-26.495-0.176-52.991-0.093-79.487-0.093C-439.972,331.888-441.447,331.888-443.693,331.888z
	 M-260.805,156.806c2.908-7.238,5.545-14.584,8.356-21.861c2.096-5.424,4.396-10.781,5.292-16.578
	c0.899-5.818-1.017-8.867-6.646-10.409c-3.704-1.016-7.549-1.107-11.359-1.472c-3.487-0.333-4.89,1.101-6.041,4.247
	c-7.411,20.273-14.939,40.504-22.692,60.648c-1.27,3.295-0.59,4.146,2.541,4.134c1.325-0.006,2.649-0.001,3.976-0.001
	C-273.75,176.045-265.6,168.737-260.805,156.806z"/>
<path fill="#6C8CD8" d="M443.87,328.784c-3.125,0.403-9.26-2.237-12.709,0.913c-3.302,3.017-4.014,8.907-5.763,13.573
	c-11.091,29.587-22.231,59.155-33.14,88.81c-1.599,4.352-3.638,5.998-8.5,5.944c-25.98-0.288-51.968-0.134-77.953-0.137
	c-5.447-0.001-5.43-0.005-3.448-5.292c30-80.042,59.994-160.086,89.996-240.128c2.86-7.632,5.899-15.2,8.57-22.896
	c0.983-2.832,2.363-3.84,5.375-3.826c35.644,0.162,71.291-0.035,106.932,0.378c14.127,0.164,28.214,1.659,41.714,6.526
	c17.661,6.369,25.458,18.197,21.232,36.348c-6.764,29.06-17.015,57.025-31.38,83.271c-9.434,17.235-25.462,25.692-43.678,30.726
	C482.961,328.015,464.318,328.336,443.87,328.784z M492.218,214.69c-5.093-2.063-10.398-1.951-15.721-1.985
	c-2.184-0.016-2.692,1.55-3.286,3.136c-7.744,20.692-15.455,41.396-23.299,62.051c-0.976,2.566-0.14,3.408,2.175,3.483
	c9.968,0.324,21.16-0.611,27.037-10.986c7.828-13.817,12.469-28.923,17.334-43.923c0.402-1.24,0.35-2.629,0.654-5.161
	C497.204,218.82,495.851,216.162,492.218,214.69z"/>
<path fill="#FFFFFF" d="M-71.611,446.041c-5.239-1.95-8.64,2.432-12.765,3.977c-12.487,4.674-24.819,9.799-37.031,15.16
	c-3.865,1.697-7.585,3.869-11.373,5.813c-9.569,4.91-20.051,7.436-29.729,11.984c-1.318-1.563-0.548-3.215-0.022-4.717
	c1.756-5.013,3.712-9.953,5.354-15.005c0.855-2.638,2.93-3.849,5.298-4.874c6.059-2.622,12.436-4.521,17.314-9.517
	c2.175-2.226,5.945-2.1,8.893-2.625c4.692-0.834,9.354-1.931,14.077-2.589c5.247-0.729,9.984-3.046,15-4.459
	c5.039-3.142,10.451-5.448,16.14-7.137c5.27,1,5.204,6.814,8.594,9.583C-70.605,442.665-70.136,444.482-71.611,446.041z"/>
<path fill="#FFFFFF" d="M-95.605,439.752c-0.367,0.536-0.753,1.553-1.098,1.54c-5.41-0.226-9.783,3.343-15.129,3.826
	c-7.082,0.642-14.052,2.537-21.057,3.956c-0.553,0.112-1.32,0.638-1.451,1.116c-0.741,2.715-3.21,3.248-5.237,4.214
	c-5.081,2.421-12.137,3.342-14.926,7.31c-4.218,5.997-5.485,14.068-8.007,21.259c-1.929,3.244-4.898,4.329-8.461,3.832
	c-1.077-0.15-2.928-0.849-2.967-1.399c-0.445-6.27-3.818-2.153-5.705-1.5c-7.636,2.648-15.117,5.746-22.773,8.326
	c-3.064,1.032-6.43,1.217-9.675,1.662c-1.688,0.23-3.245,0.573-4.355,1.985c-1.973-1.203-3.956-1.99-6.407-2.155
	c-5.866-0.396-11.165-3.117-16.728-4.781c0.472-1.456,1.732-1.896,2.996-2.342c13.274-4.668,26.526-9.396,39.441-15.006
	c1.571-0.683,3.167-1.076,4.609,0.33c-0.363,1.981-0.729,3.964-1.093,5.945c-0.954,5.973-0.13,6.668,5.809,4.901
	c0.263-0.388,0.529-0.759,0.775-1.153c3.593-10.697,7.554-21.251,11.362-31.858c0.72-2.005,1.153-4.205,3.17-5.478
	c3.007-1.419,6.481-1.379,9.417-3.062c1.132-0.647,2.438-1.352,3.642-0.168c1.096,1.077,0.798,2.452,0.425,3.737
	c-1.433,4.929-3.274,9.725-4.763,14.634c-1.482,4.896-3.746,9.562-4.367,14.711c-0.165,2.191-1.151,4.15-1.761,6.218
	c-0.233,0.795-0.456,1.725,0.371,2.28c0.967,0.651,1.926,0.184,2.731-0.443c1.665-1.299,2.299-3.226,2.907-5.125
	c2.584-8.072,5.567-16.009,7.954-24.151c1.881-6.416,3.993-7.969,10.496-7.194c10.607,1.263,20.653-1.069,30.889-3.311
	C-108.4,441.058-102.249,438.21-95.605,439.752z"/>
<path fill="#FFFFFF" d="M-61.797,405.133c0.419,0.931,0.838,1.861,1.257,2.793c-3.8,0.072-6.697,2.584-10.077,3.802
	c-1.172,0.424-2.561,2.127-1.615,3.16c3.042,3.328,2.135,8.112,5.021,11.614c3.261,3.957,3.157,10.021,7.576,13.488
	c0.087,1.294,0.175,2.587,0.264,3.88c0.322,0.522,0.228,0.951-0.285,1.286c-2.347-0.076-2.743-2.027-3.553-3.636
	c-6.03-11.978-11.646-24.152-17.364-36.28c-0.991-2.4-1.289-4.961-1.72-7.495c1.618-5.091,5.494-7.333,11.736-6.797
	C-66.299,394.851-65.537,400.91-61.797,405.133z"/>
<path fill="#FFFFFF" d="M-59.671,445.135c0.1-0.421,0.198-0.842,0.298-1.264c4.013,3.298,4.386,9.247,9.158,12.17
	c1.893,1.159,1.796,3.438-0.262,5.438c-4.256,4.132-10.016,3.489-12.813-1.537c-2.625-4.716-5.535-9.273-8.319-13.902
	c-1.765-5.229-4.793-9.593-9.018-13.137c2.379-2.061,3.692-1.995,5.442,0.787c5.007,7.96,9.758,16.075,14.173,24.381
	c0.625,1.175,1.012,2.521,2.36,3.052c1.651,0.655,3.316,0.583,4.594-0.777c1.361-1.453,0.404-2.604-0.587-3.878
	C-57.249,453.123-59.997,449.796-59.671,445.135z"/>
<path fill="#FFFFFF" d="M58.394,367.004c-6.422-0.259-11.974-3.549-17.965-5.085c-4.841-1.242-9.044-4.271-14.275-4.343
	c4.774-5.757,12.242-7.059,19.188-6.121c7.743,1.045,14.536,4.967,22.229,5.812c3.385,0.371,6.118,3.442,9.871,2.729
	c-1.705,1.549-3.798,1.296-5.528,0.546c-5.579-2.415-8.974,2.28-13.303,3.844C57.42,364.813,58.177,366.091,58.394,367.004z"/>
<path fill="#FFFFFF" d="M-192.536,471.926c-1.289,0.183-2.751,0.03-3.839,0.599c-11.701,6.104-24.545,9.272-36.638,14.362
	c-2.105,0.886-4.375,1.381-6.569,2.057c-3.848-0.801-7.425-2.333-10.945-4.019c-0.968-0.028-1.936-0.059-2.901-0.087
	c3.578-4.107,8.981-4.561,13.527-6.716c14.463-6.857,30-10.975,44.667-17.337c2.179-0.944,5.034-2.688,6.667,1.112
	C-190.374,465.049-190.352,468.923-192.536,471.926z"/>
<path fill="#FFFFFF" d="M-150.491,421.011c-1.633,4.354-2.238,9.098-4.942,13.047c-1.922-2.02-0.485-4.055,0.043-6.032
	c0.853-3.188,2.409-6.203,2.493-9.58c0.04-1.606,0.7-3.726-0.897-4.615c-1.707-0.95-2.875,1.029-4.179,1.932
	c-1.815,1.255-2.902,3.804-5.75,3.225c-0.36-0.729-0.338-1.435,0.111-2.117c0,0-0.015,0-0.016,0
	c2.412-0.736,2.321-3.099,2.904-4.852c1.923-5.774,4.887-11.082,7.164-16.684c1.51-3.714,4.689-4.837,7.841-6.153
	c1.034-0.433,2.396-0.621,3.321,0.203c1.202,1.073-0.137,2.083-0.43,3.099c-2.558,8.852-6.315,17.354-7.695,26.545
	C-150.62,419.673-150.506,420.349-150.491,421.011z"/>
<path fill="#FFFFFF" d="M-258.529,442.922c4.85-5.792,11.692-9.19,17.146-14.266c1.292-1.202,2.611-0.814,3.946,0.385
	c6.42,5.776,13.928,8.918,22.339,11.249c7.857,2.18,15.646,4.335,23.702,5.55c-8.182,0.813-15.852-0.919-23.323-4.244
	c-3.681-1.637-7.449-0.477-11.063,0.967c-8.738,3.489-17.46,7.026-26.267,10.338c-9.107,3.424-18.3,6.626-27.471,9.877
	c-2.192,0.777-4.396,1.469-6.088,3.18c-2.598-1.72-5.193-3.437-7.789-5.154c-3.426-4.649-3.352-4.479,2.175-6.894
	c4.244-1.854,8.024-3.736,11.896,0.928c1.527,1.84,4.684,1.783,6.458,0.137C-268.276,450.716-262.524,447.858-258.529,442.922z"/>
<path fill="#FFFFFF" d="M-193.445,480.076c0.559,4.445,3.548,4.224,6.78,3.53c-2.56,2.492-5.703,1.994-7.93,0.269
	c-2.292-1.777-0.583-4.164,0.966-6.004C-193.567,478.607-193.506,479.342-193.445,480.076z"/>
<path fill="#FFFFFF" d="M-70.558,390.948c-3.873,1.919-9.391,1.239-10.896,6.898c-2.458,0.548-1.156-2.907-3.098-2.909v0.001
	c-0.012-3.727-1.743-6.925-3.172-10.207c-1.018-2.332-1.549-4.646,1.39-5.811c2.717-1.077,5.081-4.591,8.646-0.78
	C-74.174,381.896-72.164,386.253-70.558,390.948z"/>
<path fill="#FFFFFF" d="M-163.543,418.925c3.022-1.751,4.904-4.811,7.931-6.656c3.034-1.854,3.809-0.688,4.057,2.106
	c0.356,4.021-0.454,7.818-1.792,11.624c-0.913,2.596-2.416,5.115-2.084,8.06c-4.575,13.373-8.42,26.999-13.995,40.021
	c1.3-8.361,4.989-16.003,7.263-24.069c0.783-2.782,2.406-5.373,2.25-9.081c-4.037,2.871-8.194,3.861-12.578,4.028
	c-0.786-0.992-0.638-2.029-0.141-3.082c0.224-1.053-0.11-2.282,0.979-3.059c1.621-2.398,1.795-5.371,3.11-7.891l0,0
	C-166.681,427.008-166.359,422.447-163.543,418.925z"/>
<path fill="#FFFFFF" d="M-172.635,441.875c0.047,1.026,0.094,2.055,0.141,3.081c-3.895,10.889-7.762,21.786-11.714,32.653
	c-0.654,1.799-0.644,3.938-2.365,5.271c1.419-9.373,5.6-17.873,8.567-26.749C-176.399,451.327-175.215,446.325-172.635,441.875z"/>
<path fill="#FFFFFF" d="M-84.551,394.938c2.184-0.255,1.703,2.325,3.098,2.91c1.245,2.226,1.402,4.728,1.812,7.167
	C-83.266,402.622-82.582,398.134-84.551,394.938z"/>
<path fill="#FFFFFF" d="M-163.543,418.925c-1.938,3.887-2.198,8.475-5.002,12c0.551-5.069,2.267-9.729,4.935-14.056
	C-163.589,417.555-163.566,418.239-163.543,418.925z"/>
<path fill="#FFFFFF" d="M-168.546,430.925c-0.403,2.88-0.647,5.822-3.111,7.891C-171.042,436.02-170.741,433.1-168.546,430.925z"/>
<line fill="none" x1="-325" y1="411.435" x2="-271.154" y2="394.878"/>
<path fill="#FFFFFF" d="M577.59-1041.165c10.326-27.533,20.209-53.879,30.086-80.226c33.21-88.588,66.454-177.165,99.531-265.802
	c1.672-4.48,3.666-6.229,8.659-6.17c46.984,0.558,93.982-0.741,140.96,0.814c15.726,0.521,31.406,2.022,46.487,7.021
	c27.962,9.266,37.438,24.971,30.229,53.329c-8.815,34.675-23.848,41.938-37.811,72.423c-14.281,31.177-36.992,66.145-69,72.5
	c-24.269,4.815-48.848,4.848-73.415,4.446c-5.258-0.085-7.461,1.602-9.24,6.415c-15.947,43.139-32.247,86.146-48.178,129.293
	c-1.711,4.633-3.847,6.108-8.747,6.075c-34.278-0.228-68.56-0.119-102.838-0.119C582.405-1041.165,580.496-1041.165,577.59-1041.165
	z M931.94-1326.407c2.667-2.979-115.754,53.327-110.518,39.771c2.71-7.017,9.283-23.277,10.442-30.777
	c1.163-7.527-1.316-11.472-8.601-13.466c-4.792-1.313-9.766-1.433-14.695-1.903c-4.514-0.432-6.327,1.423-7.815,5.494
	c-9.588,26.229-19.33,52.402-29.36,78.465c-1.642,4.264-0.763,5.366,3.288,5.349c1.715-0.008,37.087,6.688,35.684-11.43
	C923.916-1271.091,887.369-1271.009,931.94-1326.407z M926.309-1319.144l3.788-1.629l1.844-5.635"/>
<g>
	<path fill="#6C8CD8" d="M890.16-986.801c15.094-41.479,26.863-72.858,42.211-114.244c2.42-6.525,3.407-14.766,7.975-18.984
		c4.773-4.408,13.265-0.713,17.586-1.277c28.3-0.626,54.101-1.077,79.226-8.096c25.209-7.041,47.39-18.87,60.443-42.979
		c19.879-36.713,34.064-75.829,43.426-116.477c5.846-25.388-4.943-41.932-29.384-50.841c-18.683-6.811-38.177-8.901-57.727-9.129
		c-49.32-0.578-6.574,0.193-55.899-0.033c-0.89-0.778-1.716,0.104-2.572,0.667c-3.117,1.036-8.595,3.197-15.145,5.894
		c-2.269,0.749-4.506,1.56-6.622,2.614c-0.737,0.368-1.479,0.724-2.225,1.075c-16.656,7.017-36.08,15.536-42.478,18.326
		c-2.21,0.94-4.417,1.894-6.63,2.826c-12.916,5.442-25.786,10.996-38.659,16.537l0,0c-1.149,0.494-2.107,0.905-2.896,1.244
		c-3.648,1.569-7.297,3.14-10.948,4.702c-9.013,3.859-17.913,7.986-26.996,11.7c-17.437,7.13-34.705,14.667-52.01,22.114
		c-2.315,0.997-4.93,1.474-7.396,3.713c5.897,1.549,10.926-0.465,15.869-1.164c9.824-1.39,19.727-2.141,29.499-3.758
		c4.104-0.678,8.241-0.962,12.333-1.668c5.784-0.998,11.602-1.892,17.439-2.459c4.229-0.412,5.136,1.121,3.09,5.044
		c-2.545,4.884-4.783,9.879-6.853,14.984c-4.813,11.873-10.774,23.235-15.134,35.342c-3.469,9.632-8.145,18.831-12.311,28.21
		c-3.23,7.272-6.557,14.505-9.75,21.794c-8.629,19.699-17.402,39.341-25.744,59.16c-5.646,13.416-11.815,26.596-17.543,39.976
		c-9.521,22.243-23.547,45.814-32.666,68.242 M1030.71-1264.424c-6.73,20.98-13.154,42.109-23.986,61.438
		c-8.134,14.512-23.621,15.82-37.414,15.367c-3.205-0.104-4.358-1.282-3.012-4.872c10.855-28.891,21.525-57.851,32.242-86.793
		c0.822-2.218,1.523-4.408,4.546-4.387c7.365,0.049,14.708-0.107,21.755,2.777c5.025,2.06,6.898,5.777,6.774,9.253
		C1031.194-1268.102,1031.267-1266.159,1030.71-1264.424z"/>
</g>
</svg>
