<?xml version="1.0" encoding="utf-8"?>
<!-- Generator: Adobe Illustrator 16.0.0, SVG Export Plug-In . SVG Version: 6.00 Build 0)  -->
<!DOCTYPE svg PUBLIC "-//W3C//DTD SVG 1.1//EN" "http://www.w3.org/Graphics/SVG/1.1/DTD/svg11.dtd">
<svg version="1.1" id="Capa_1" xmlns="http://www.w3.org/2000/svg" xmlns:xlink="http://www.w3.org/1999/xlink" x="0px" y="0px"
	 width="2465.921px" height="660px" viewBox="0 0 2465.921 660" enable-background="new 0 0 2465.921 660" xml:space="preserve">
<path fill-rule="evenodd" clip-rule="evenodd" fill="#FFFFFF" d="M388.279,508.486c38.852-9.742,74.32-27.079,108.031-48.298
	c29.326-18.458,55.585-40.641,78.952-66.191c11.448-12.517,22.254-25.611,31.406-39.939c2.145-3.36,4.567-4.615,8.499-4.632
	c43.64-0.198,87.279-0.646,130.92-0.783c8.453-0.026,16.91-1.97,25.362-0.078c1.273,0.285,2.522,0.68,4.679,1.268
	c-10.25,10.249-18.689,21.261-28.855,30.704c-1.203,2.395-2.715,4.52-5.112,5.875c-2.115,3.415-5.158,5.861-8.292,8.286
	c-1.784,1.378-3.739,2.863-3.869,5.553c-0.029,0.603-8.687,10.103-13.604,13.213c-4.391,2.778-7.259,7.227-10.929,10.792
	c-23.354,22.692-49.201,42.021-76.457,59.75c-28.497,18.536-58.545,34.062-88.96,49.056c-8.284,4.084-16.337,8.583-25.129,11.505
	c-3.551,1.181-6.96,2.61-10.125,4.607c-3.342,2.109-7.84-0.946-10.65,1.782c-3.956,3.841-9.191,4.845-13.824,6.669
	c-10.796,4.251-21.954,7.789-33.218,10.608c-22.373,5.601-44.916,10.528-67.393,15.708c-1.111,0.256-2.302,0.497-3.411,0.367
	c-8.838-1.039-17.387,1.109-26.041,2.174c-5.069,0.624-10.352,0.991-15.268,0.933c-8.988-0.106-17.876,2.015-26.833,0.835
	c-11.957-1.575-24.024,1.289-35.912-0.656c-14.389-2.353-28.896-3.868-43.205-6.906c-6.919-1.469-13.771-3.403-20.802-4.423
	c-4.062-0.589-7.885-2.3-11.753-3.497c-25.136-7.773-49.212-18.318-70.977-33.083c-20.309-13.778-38.487-30.135-53.036-50.318
	c-9.322-12.932-17.372-26.502-23.542-41.102c-4.453-10.536-8.178-21.437-10.405-32.713c-1.955-9.902-4.473-19.851-4.869-29.853
	c-0.3-7.568-1.771-15.251-0.253-22.921c0.695-3.51-1.26-7.041,0.05-10.797c0.845-2.424,1.524-3.496,4.254-3.481
	c25.825,0.138,51.649,0.137,77.475,0.176c2.282,3.53,0.951,7.447,1.062,11.167c0.628,20.992,4.442,41.278,13.304,60.415
	c14.511,31.339,37.846,54.195,68.052,70.429c21.594,11.605,44.659,18.521,68.75,22.616c23.068,3.922,46.177,4.244,69.457,2.802
	C353.542,515.004,371.048,512.816,388.279,508.486z"/>
<path fill-rule="evenodd" clip-rule="evenodd" fill="#6C8CD8" d="M1474.369,137.202c3.309-3.004,6.814-3.644,9.922-4.981
	c23.215-9.99,46.381-20.102,69.771-29.666c12.186-4.982,24.124-10.519,36.215-15.696c23.477-10.052,46.897-20.241,70.434-30.16
	c13.635-5.747,27.227-11.603,40.764-17.579c9.344-4.125,18.924-7.665,28.099-12.239c5.982-2.982,12.675-4.521,18.992-6.861
	c3.334-1.236,6.625-2.654,9.776-4.295c1.307-0.68,2.54-2.325,3.882-1.153c1.51,1.319,1.126,3.457,0.186,5.084
	c-1.792,3.097-3.812,6.001-5.409,9.28c-3.73,7.656-8.752,14.695-12.309,22.417c-2.176,4.726-4.969,9.169-7.376,13.667
	c-3.589,6.708-7.009,13.597-10.964,20.157c-3.194,5.296-5.84,11.031-8.948,16.269c-2.623,4.418-3.705,9.906-7.792,13.402
	c-1.654,1.414-1.101,3.432-1.936,4.906c-3.448,6.09-6.267,12.607-10.097,18.37c-5.043,7.588-8.564,15.887-12.985,23.744
	c-1.129,2.006-2.915,3.468-3.646,5.855c-7.816,25.521-20.529,49-30.772,73.513c-7.661,18.335-16.366,36.209-23.936,54.558
	c-7.584,18.383-16.345,36.228-23.972,54.569c-8.076,19.417-17.385,38.289-25.452,57.678c-7.698,18.5-16.829,36.376-24.093,55
	c-7.579,19.43-18.248,37.404-25.437,56.954c-1.093,2.973-3.042,3.854-6.113,3.882c-36.312,0.339-72.623,0.753-108.933,1.272
	c-3.883,0.056-4.575-0.722-2.878-4.399c4.878-10.572,9.635-21.214,14.02-31.999c12.233-30.086,26.001-59.5,38.776-89.339
	c7.684-17.949,15.96-35.629,23.535-53.626c11.19-26.589,22.959-52.937,34.535-79.364c4.283-9.779,8.744-19.48,13.079-29.237
	c5.59-12.582,11.861-24.922,16.514-37.843c5.849-16.24,13.845-31.482,20.303-47.409c2.775-6.85,5.777-13.551,9.192-20.103
	c2.744-5.263,1.526-7.32-4.146-6.767c-7.832,0.763-15.636,1.959-23.395,3.299c-5.49,0.947-11.04,1.328-16.545,2.238
	c-13.11,2.169-26.394,3.176-39.573,5.04C1489.026,136.578,1482.281,139.28,1474.369,137.202z"/>
<path fill-rule="evenodd" clip-rule="evenodd" fill="#6C8DD8" d="M2271.66,318.606c-3.58,9.427-7.189,18.841-10.734,28.281
	c-10.877,28.965-21.795,57.917-32.502,86.945c-1.221,3.311-2.893,4.144-6.18,4.124c-21.493-0.131-42.988-0.061-64.483-0.071
	c-5.79-0.002-5.948-0.188-3.971-5.451c12.64-33.633,25.337-67.245,37.952-100.889c15.123-40.335,30.176-80.699,45.276-121.044
	c5.19-13.866,10.496-27.688,15.588-41.589c0.836-2.282,1.978-3.144,4.321-3.139c22.829,0.048,45.656,0.066,68.483-0.009
	c3.028-0.011,3.516,1.46,3.587,4.02c0.583,20.794,1.228,41.586,1.926,62.377c0.592,17.583,1.28,35.163,2.74,52.988
	c3.361-8.913,6.728-17.824,10.084-26.738c11.138-29.581,22.299-59.154,33.358-88.763c0.908-2.431,1.78-3.924,4.794-3.909
	c22.994,0.119,45.988,0.072,68.982,0.094c0.644,0.001,1.285,0.183,2.424,0.355c-3.464,9.398-6.799,18.587-10.231,27.739
	c-17.063,45.481-34.151,90.953-51.235,136.427c-12.929,34.416-25.932,68.805-38.696,103.281c-1.312,3.547-3.121,4.34-6.56,4.321
	c-22.66-0.13-45.322-0.177-67.981,0.029c-4.258,0.039-5.272-1.298-5.245-5.375c0.172-25.492,0.398-50.991-0.047-76.478
	C2273.094,343.692,2272.977,331.235,2271.66,318.606z"/>
<path fill-rule="evenodd" clip-rule="evenodd" fill="#6C8CD8" d="M1431.468,248.099c-12.33,0-24.66-0.112-36.987,0.066
	c-3.787,0.056-5.083-0.479-3.449-4.6c3.247-8.188,6.276-16.487,8.881-24.9c2.916-9.418-1.008-13.752-10.79-12.375
	c-7.021,0.988-12.301,4.826-16.23,10.598c-4.779,7.02-7.283,14.942-8.668,23.205c-0.846,5.048,0.692,9.513,4.456,13.17
	c4.465,4.34,9.708,7.54,15.021,10.675c15.064,8.886,29.666,18.364,43.399,29.323c15.87,12.664,20.082,28.354,16.021,47.52
	c-3.967,18.723-10.719,36.317-19.781,53.092c-10.051,18.608-26.268,29.618-45.488,36.983c-20.087,7.697-40.827,11.793-62.36,12.418
	c-17.568,0.51-34.893-0.468-51.855-5.382c-8.4-2.434-16.173-6.21-23.207-11.375c-11.717-8.605-14.321-20.603-12.355-34.208
	c2.475-17.12,9.02-32.985,15.014-49.028c0.928-2.482,2.456-3.146,4.921-3.14c24.992,0.059,49.983,0.099,74.974-0.022
	c4.231-0.021,4.133,1.413,2.928,4.757c-4.846,13.448-10.982,26.448-14.379,40.399c-2.024,8.312,0.604,11.458,9.071,11.837
	c9.003,0.404,15.945-3.354,20.86-10.532c6.604-9.648,9.894-20.611,11.408-32.143c0.871-6.633-1.927-11.431-6.994-15.539
	c-10.765-8.728-22.486-16.058-33.895-23.851c-7.007-4.786-13.788-9.902-20.767-14.73c-14.31-9.899-19.65-24.048-16.946-40.483
	c4.149-25.221,13.839-48.369,31.573-67.265c13.041-13.896,30.059-21.388,48.17-26.028c34.303-8.789,68.734-9.813,102.991,0.452
	c7.522,2.253,14.469,5.854,20.545,11.013c7.551,6.407,10.172,14.556,8.896,24.152c-2.013,15.139-7.486,29.27-12.671,43.49
	c-1.028,2.821-3.187,2.445-5.316,2.447C1456.126,248.103,1443.797,248.099,1431.468,248.099z"/>
<path fill-rule="evenodd" clip-rule="evenodd" fill="#FFFFFF" d="M732.486,277.208c15.112,0,29.419,0,43.727-0.001
	c6.164,0,12.329,0.03,18.493-0.021c2.151-0.019,3.025,0.294,2.054,2.836c-6.285,16.445-12.482,32.925-18.507,49.468
	c-0.987,2.712-2.767,2.389-4.714,2.39c-11.996,0.012-23.99,0.007-35.986,0.007c-36.652,0-73.304-0.085-109.956,0.103
	c-4.823,0.025-4.951-1.179-3.441-5.193c32.45-86.305,64.785-172.653,97.147-258.991c0.525-1.4,1.334-2.733,1.624-4.175
	c0.661-3.291,2.612-3.946,5.742-3.94c46.647,0.095,93.296,0.117,139.943-0.022c4.33-0.013,4.543,1.055,3.122,4.714
	c-5.954,15.332-11.735,30.733-17.341,46.195c-1.103,3.04-2.563,3.983-5.725,3.954c-16.992-0.155-33.987,0.019-50.979-0.157
	c-3.216-0.033-4.69,1.056-5.755,3.976c-5.236,14.356-10.53,28.693-16.079,42.93c-1.546,3.967-0.648,4.604,3.321,4.549
	c15.491-0.212,30.986-0.052,46.48-0.124c2.797-0.013,4.444-0.104,2.964,3.69c-5.792,14.859-11.341,29.815-16.792,44.804
	c-1.026,2.825-2.439,3.72-5.4,3.692c-15.826-0.146-31.653-0.083-47.48-0.054c-2.052,0.003-4.045-0.515-5.147,2.494
	C746.958,239.025,739.859,257.625,732.486,277.208z"/>
<path fill-rule="evenodd" clip-rule="evenodd" fill="#6C8CD8" d="M1857.454,220.251c-7.496,0.001-14.994,0.088-22.487-0.043
	c-2.922-0.052-4.386,0.956-5.451,3.823c-13.963,37.568-28.061,75.087-42.143,112.611c-12.155,32.389-24.381,64.75-36.426,97.179
	c-1.196,3.223-2.81,4.164-6.16,4.146c-26.818-0.141-53.639-0.132-80.459-0.018c-3.664,0.016-4.507-0.528-3.071-4.338
	c26.043-69.099,51.946-138.249,77.866-207.394c2.229-5.945,2.183-5.965-4.34-5.965c-13.827-0.003-27.654-0.104-41.479,0.065
	c-3.863,0.048-4.485-0.912-3.096-4.506c6-15.511,11.822-31.092,17.549-46.706c0.995-2.712,2.532-3.35,5.204-3.347
	c62.303,0.062,124.604,0.065,186.906-0.002c3.446-0.004,4.431,0.678,3.065,4.224c-6.033,15.673-11.906,31.409-17.688,47.178
	c-0.923,2.518-2.314,3.181-4.804,3.14C1872.781,220.17,1865.117,220.251,1857.454,220.251z"/>
<path fill-rule="evenodd" clip-rule="evenodd" fill="#FFFFFF" d="M540.447,331.887c-22.487,0-44.975-0.091-67.46,0.081
	c-4.208,0.032-4.629-0.895-3.19-4.722c33.034-87.839,65.964-175.716,98.806-263.625c1.141-3.053,2.632-3.948,5.771-3.934
	c26.817,0.119,53.636,0.136,80.453-0.004c3.818-0.02,4.929,0.363,3.361,4.506c-15.525,41.003-30.859,82.079-46.247,123.135
	c-10.783,28.771-21.53,57.557-32.397,86.297c-1.102,2.917-0.655,3.672,2.504,3.647c15.324-0.126,30.649,0.005,45.974-0.108
	c3.441-0.025,4.798,0.19,3.178,4.302c-6.028,15.297-11.77,30.712-17.3,46.198c-1.256,3.519-3.041,4.324-6.489,4.302
	C585.089,331.817,562.768,331.887,540.447,331.887z"/>
<path fill-rule="evenodd" clip-rule="evenodd" fill="#6C8CD8" d="M1856.563,437.889c-13.162,0.001-26.326,0.004-39.488-0.001
	c-5.756-0.002-5.747-0.006-3.797-5.211c24.568-65.579,49.128-131.162,73.702-196.739c8.23-21.96,16.59-43.873,24.647-65.896
	c1.289-3.521,3.113-4.322,6.557-4.305c26.491,0.126,52.983,0.133,79.476,0.001c3.982-0.02,5.225,0.446,3.563,4.818
	c-12.941,34.056-25.658,68.196-38.431,102.317c-17.784,47.513-35.552,95.032-53.34,142.543c-2.334,6.233-4.968,12.363-7.025,18.683
	c-1.052,3.231-2.837,3.875-5.876,3.845C1883.223,437.817,1869.892,437.889,1856.563,437.889z"/>
<path fill-rule="evenodd" clip-rule="evenodd" fill="#FFFFFF" d="M551.932,391.943c-6.916,9.399-16.336,16.266-25.09,23.631
	c-10.945,9.208-23.107,16.97-34.684,25.412c-15.159,11.055-32.032,18.816-48.537,27.143c-11.647,5.876-24.167,10.334-36.683,14.529
	c-9.747,3.267-19.7,5.614-29.478,8.581c-7.655,2.322-15.534,3.59-23.229,5.147c-5.569,1.128-11.484,2.865-17.492,2.252
	c-2.97-0.304-5.99-0.233-8.73,1.321c-8.051-0.123-16.148-1.601-24.139,0.208c-6.437,1.457-12.67,1.832-18.933-0.742
	c-4.999-2.055-10.326-2.204-15.645-1.995c-2.192,0.087-4.278-0.225-6.308-0.982c-1.025-0.159-1.513-0.71-0.885-1.661
	c0.892-1.351,2.367-1.865,3.86-2.058c11.677-1.51,22.178-6.722,33.144-10.467c2.69-0.919,5.047-2.22,6.926,1.782
	c1.336,2.845,4.928,1.958,9.359-1.809c5.027-3.406,10.95-4.702,16.515-6.773c9.488-3.534,18.472-8.127,27.563-12.48
	c12.132-5.809,24.808-10.263,37.157-15.521c3.237-1.378,6.137-4.398,10.166-2.266c3.893,4.095,6.92,8.85,9.292,13.898
	c1.901,4.048,4.896,3.898,8.232,3.27c1.687-0.317,3.047-1.643,3.534-3.216c0.489-1.581-0.846-2.688-2.043-3.636
	c-3.889-3.081-4.885-8.044-7.693-11.837c-0.372-1.232-0.455-2.487-0.34-3.761c0.901-5.461,5.294-6.794,9.672-7.93
	c2.357-0.61,4.38,0.507,5.213,2.793c1.666,4.571,4.72,8.341,6.925,12.595c2.446,4.717,3.355,4.893,7.954,2.112
	c1.721-1.009,2.963-1.988,1.492-4.313c-2.04-3.222-2.879-7.099-5.008-10.266c-2.16-3.211-1.315-5.231,1.936-6.673
	c7.601-3.37,14.915-7.391,22.567-10.592c12.904-5.397,25.326-11.872,38.25-17.144c13.928-5.681,26.421-14.047,40.079-20.165
	c2.596-1.163,5.26-2.169,8-2.822c3.169-0.757,5.85-2.176,8.326-4.257c1.132-0.951,2.793-1.527,4.011-0.001
	c1.109,1.39,0.742,3.222-0.473,4.056c-5.694,3.91-9.638,9.516-14.384,14.339C551.865,392.12,552.434,391.503,551.932,391.943z"/>
<path fill-rule="evenodd" clip-rule="evenodd" fill="#FFFFFF" d="M551.932,391.943c3.108-6.021,8.169-10.237,13.353-14.308
	c1.377-1.081,2.2-2.431,1.196-3.771c-1.09-1.457-2.967-0.09-3.31,0.687c-1.606,3.633-5.115,3.186-7.948,4.172
	c-12.76,4.444-24.439,11.115-36.095,17.774c-5.631,3.217-11.807,5.057-17.591,7.918c-15.367,7.601-31.65,13.256-46.718,21.547
	c-0.717,0.395-1.519,0.664-2.31,0.892c-9.918,2.846-10.045,3.006-5.424,11.637c1.241,2.317,1.687,4.911,3.334,7.138
	c1.743,2.357-0.637,3.412-2.485,4.281c-0.558-0.355-0.576-0.737-0.056-1.146c1.412-1.233,1.009-2.347,0.165-3.853
	c-4.751-8.478-9.308-17.063-14.012-25.568c-2.725-4.927-2.53-5.659,2.865-7.92c13.734-5.756,25.377-14.782,37.12-23.662
	c2.241-1.694,4.595-3.239,6.897-4.853c5.101-4.191,10.871-7.646,15.171-12.713c3.276-3.861,7.513-4.404,11.207-2.481
	c7.894,4.111,16.629,5.903,24.571,9.834c3.967,1.964,8.633,4.114,12.511-0.735c2.518-4.882,2.056-5.938-3.212-6.337
	c-2.369-0.18-3.936-1.223-5.161-3.087c-0.992-2.277-0.032-4.053,1.918-4.928c4.22-1.894,8.113-5.363,13.39-3.078
	c1.322,0.573,2.93,0.256,4.356-0.273c1.179-0.161,2.212-0.6,3.073-1.467c1.174-1.184,2.55-2.293,2.024-4.224
	c-0.479-1.756-2.12-1.883-3.545-2.274c-1.755-0.479-3.622-0.57-5.284-1.334c-1.102-0.507-2.031-1.292-0.921-2.666
	c12.282-0.065,24.564-0.14,36.846-0.176c0.933-0.003,2.175-0.393,2.7,0.663c0.688,1.386-0.6,2.317-1.47,2.746
	c-3.614,1.78-4.744,5.262-6.547,8.431c-2.312,4.059-5.99,7.163-8.909,10.819c-5.836,7.312-12.788,13.758-18.819,20.985
	C554.082,391.486,553.347,392.485,551.932,391.943z"/>
<path fill-rule="evenodd" clip-rule="evenodd" fill="#FFFFFF" d="M161.013,436.896c-3.106-6.752-9.351-11.912-10.029-19.906
	c-0.241-2.846,0.673-4.323,3.58-5.513c11.317-4.627,22.838-8.67,34.273-12.953c3.617-1.354,7.3-2.691,10.967-3.985
	c4.183-1.476,7.677-0.609,10.576,3.019c2.267,2.835,4.842,5.422,7.867,7.553c5.741,4.043,5.684,4.397-0.361,8.72
	c-2.279-1.438-4.517-0.441-6.729,0.166c-7.235,1.986-13.907,5.465-20.955,7.975c-6.571,2.342-13.21,4.495-19.744,6.954
	C166.293,430.492,162.532,432.303,161.013,436.896z"/>
<path fill-rule="evenodd" clip-rule="evenodd" fill="#FFFFFF" d="M212.701,480.076c-0.381-2.991-3.948-0.786-4.829-2.961
	c-1.396-2.649,0.209-4.045,2.232-5.187c3.495-1.97,7.296-3.231,11.015-4.688c15.495-6.063,31.608-10.625,46.646-17.693
	c7.69-3.615,15.207-4.19,23.176-3.905c4.44,0.159,5.49,1.405,4.189,5.643c-1.145,3.732-1.792,7.764-4.537,10.862
	c-3.891-1.331-7.6-0.409-11.099,1.243c-14.612,6.897-30.41,10.752-45.023,17.658c-3.146,1.486-6.335,2.941-9.613,4.157
	C220.724,483.69,217.448,480.14,212.701,480.076z"/>
<path fill-rule="evenodd" clip-rule="evenodd" fill="#FFFFFF" d="M395.004,347.075c6.029,0,12.059,0,18.549,0
	c-6.696,6.083-10.85,13.054-13.541,20.958c-0.899-0.713-1.053-1.732-0.786-2.696c1.158-4.168-0.726-4.463-3.674-2.745
	c-5.921,3.453-12.373,5.861-18.608,9.372c5.641,0.777,8.641,4.543,11.511,8.425c1.086,1.469,2.168,3.089,0.247,4.789
	c-2.7-0.639-3.853-3.044-5.418-4.898c-2.316-2.74-5.075-4.181-8.688-3.996c-6.589,0.338-13.277-0.924-19.704,1.795
	c-8.324,3.522-14.943,8.494-17.35,17.79c-1.958,7.563-5.028,14.782-7.217,22.281c-0.362,1.239-0.477,2.701-2.167,2.996
	c-2.35-2.283-1.371-4.919-0.597-7.392c1.928-6.156,3.904-12.297,5.748-18.479c0.411-1.378,1.234-2.696,0.824-4.45
	c-4.061,0.148-6.591,2.219-8.16,5.58c-2.516,5.39-5.157,10.723-7.139,16.354c-0.649,1.846-0.85,4.453-3.962,3.994
	c-1.059-1.638-0.294-3.232,0.203-4.777c2.643-8.219,5.831-16.248,8.542-24.441c0.11-0.658,0.308,0.155,0.163-0.449
	c-1.853-7.752,4-9.188,9.12-11.506c19.696-8.922,39.558-17.478,59.09-26.762C393.043,348.318,394.135,347.888,395.004,347.075z"/>
<path fill-rule="evenodd" clip-rule="evenodd" fill="#FFFFFF" d="M243.958,399.924c7.063-8.018,16.337-13.421,24.205-20.492
	c4.756-4.274,10.537-7.438,13.581-13.534c0.998-2,2.993-3.548,5.232-4.465c5.521-2.261,11.025-4.562,16.561-6.789
	c2.738-1.101,5.438-0.93,8.221,0.172c14.315,5.671,28.947,8.265,44.226,4.323c1.258-0.324,2.645-0.146,3.972-0.202
	c-0.007,2.414-2.104,2.303-3.534,2.683c-3.857,1.025-7.788,2.005-11.808,1.631c-9.165-0.851-16.688,3.662-24.562,7.152
	c-3.01,1.334-2.375,4-2.793,6.33c-5.396-1.406-10.893-1.515-16.438-1.542c-4.87-0.024-9.056,1.578-13.075,4.07
	c-5.955,3.692-10.999,8.517-16.362,12.949c-1.766,1.459-3.516,3.101-6.031,3.227c-5.663-1.025-10.473,1.682-15.497,3.506
	C247.97,399.628,246.225,401.441,243.958,399.924z"/>
<path fill-rule="evenodd" clip-rule="evenodd" fill="#FFFFFF" d="M289.933,461.896c1.371-3.868,2.647-7.773,4.144-11.591
	c1.15-2.934-0.241-3.058-2.69-3.418c-11.657-1.71-21.496,3.425-31.772,7.558c-14.613,5.876-29.548,10.944-44.251,16.603
	c-2.975,1.145-7.235,1.313-7.491,6.068c-1.517-1.247-4.034-0.752-5.038-2.894c-3.395-2.508-6.768-5.046-10.236-7.466
	c-0.18-0.504-0.187-1.004-0.026-1.513c3.514-4.301,8.926-5.155,13.641-6.636c15.856-4.977,30.96-11.868,46.551-17.494
	c4.725-1.705,9.021-1.623,13.91,0.315c6.39,2.534,13.281,3.94,20.348,3.085c1.334-0.038,2.667-0.013,3.996,0.04
	c6.416,0.252,8.313,2.718,5.885,8.542c-3.018,7.237-5.238,14.73-7.874,22.088c-0.718,2.005-1.261,4.216-3.708,4.965
	c-0.84-0.369-1.179-1.097-1.377-1.924c-0.325-2.202,0.456-4.213,1.084-6.253C286.825,468.695,286.331,464.294,289.933,461.896z"/>
<path fill-rule="evenodd" clip-rule="evenodd" fill="#FFFFFF" d="M161.013,436.896c-0.649-3.679,0.854-5.91,4.371-7.191
	c8.535-3.11,16.911-6.684,25.535-9.514c7.69-2.524,14.816-6.521,22.759-8.355c2.174-0.502,3.984-1.187,4.209,1.995
	c-8.862,7.44-17.764,14.833-26.532,22.382c-1.13,0.973-3.662,1.716-2.257,4.176c1.337,2.341,3.192,0.669,4.847,0.484
	c-0.378,3.918-3.183,3.577-5.259,2.277c-4.907-3.073-8.826-0.135-13.067,1.387c-2.714,0.973-1.49,3.752-2.659,5.413
	C167.593,446.866,164.827,441.401,161.013,436.896z"/>
<path fill-rule="evenodd" clip-rule="evenodd" fill="#FFFFFF" d="M172.959,449.95c-2.516-3.927-0.448-5.987,3.135-7.024
	c4.393-1.271,8.665-5.344,13.495-0.416c1.304,1.331,3.451,0.434,4.355-1.637c2.738-3.413,6.817-5.131,10.039-7.935
	c5.734-5.977,13.78-6.962,21.016-9.678c1.408-0.529,3.197-0.687,4.051,0.851c1.272,2.29-0.826,3.583-1.992,5.1
	c-6.709,5.615-13.09,11.611-19.611,17.449c-1.52,1.36-3.332,2.114-5.087,3.025c-0.732,0.38-1.557,1.014-1.274,1.91
	c0.377,1.201,1.54,1.003,2.512,0.859c1.736-0.257,2.984-1.368,4.151-2.55c2.465-2.493,5.488-4.239,8.301-6.264
	c1.192-0.858,2.433-1.852,4.043-0.818c0.178,0.48,0.296,1.085-0.016,1.428c-4.457,4.905-9.561,9.09-15.341,12.266
	c-2.687,1.478-5.375-0.035-7.8-1.796c-2.471-1.794-10.812-0.478-12.431,1.801c-1.084,1.526,1.338,2.554,0.728,4.072
	c-0.155,0.179-0.313,0.356-0.469,0.534c-2.589-1.318-5.049-2.8-6.721-5.287c-1.512-2.124-3.631-3.724-5.087-5.896L172.959,449.95z"
	/>
<path fill-rule="evenodd" clip-rule="evenodd" fill="#FFFFFF" d="M317.076,376.727c-2.833-3.839-1.306-5.931,2.616-7.742
	c8.733-4.033,17.272-8.105,27.421-7.211c4.297,0.378,8.814-0.729,12.841-2.836c9.311-2.381,18.303-5.55,26.387-10.885
	c2.763-1.823,5.742-0.959,8.663-0.979c-1.639,4.818-6.671,4.35-10.102,6.23c-13.912,7.626-28.959,12.84-43.23,19.738
	c-4.318,2.086-8.704,4.056-13.157,5.831c-3.008,1.198-5.26,2.292-2.757,5.994c0.603,0.891,0.392,2.293-0.881,3.019
	C322.363,384.105,320.139,380.123,317.076,376.727z"/>
<path fill-rule="evenodd" clip-rule="evenodd" fill="#FFFFFF" d="M225.987,428.95c0.362-0.551,0.719-1.105,1.087-1.651
	c0.6-0.888,2.178-1.61,1.155-2.854c-0.805-0.976-2.163-0.469-3.257,0.011c-6.912,3.037-14.557,4.259-20.989,8.482
	c5.796-7.126,13.775-11.727,20.586-17.682c6.195-5.417,12.905-10.245,19.388-15.332c5.372-1.664,10.23-4.801,15.837-5.711
	c1.67-0.271,3.88-2.083,5.214,0.757c0.148,3.419-2.644,4.808-4.758,6.456c-9.97,7.77-18.983,16.62-28.499,24.9
	C230.139,427.73,228.947,430.38,225.987,428.95z"/>
<path fill-rule="evenodd" clip-rule="evenodd" fill="#FFFFFF" d="M536.895,367.004c1.098,2.106,2.851,2.718,5.185,2.837
	c5.462,0.278,6.153,2.165,2.817,7.036c-0.522-0.646-0.557-1.272,0.077-1.871c0.137-1.805-0.201-3.695-2.218-3.859
	c-3.397-0.276-6.196-2.089-9.283-2.964c-8.771-2.486-17.319-5.674-26.027-8.204c-7.184-2.086-14.065-5.079-21.418-6.728
	c-5.726-1.285-11.136-3.982-17.473-6.345c14.246,0,27.719,0.34,41.166-0.121c8.79-0.3,16.615,2.883,24.717,5.164
	c6.203,1.747,12.276,3.956,18.42,5.917c1.463,0.467,2.972,0.397,4.386-0.251c1.22-0.559,2.495-1.222,2.647-2.723
	c0.187-1.846-1.482-2-2.657-2.4c-4.683-1.594-9.397-3.096-14.101-5.349c2.627,0,5.253,0,7.88,0c0.391,2.104,2.11,2.454,3.755,2.6
	c2.983,0.265,6.707-0.101,7.063,3.831c0.324,3.583-2.752,5.331-5.889,6.422c-5.576,0.899-10.507-1.943-15.787-2.797
	c-5.378-0.871-10.589-2.843-15.724-4.506c-6.592-2.137-11.221,0.462-16.721,3.511c5.354,3.329,11.221,4.308,16.672,6.232
	C528.569,363.914,532.724,365.481,536.895,367.004z"/>
<path fill-rule="evenodd" clip-rule="evenodd" fill="#FFFFFF" d="M447.879,448.764c0.019,0.382,0.038,0.765,0.056,1.146
	c-5.257,3.384-6.782,2.9-9.348-2.522c-2.111-4.461-5.691-8.115-7.14-12.986c-0.438-1.472-2.111-1.772-3.382-1.391
	c-3.895,1.17-8.25,1.881-9.202,6.98c-3.569-0.209-4.479-3.254-5.423-5.708c-2.19-5.69-5.444-10.869-7.42-16.688
	c-1.299-3.822-0.66-6.17,2.782-7.68c2.829-1.241,5.445-3.327,8.846-2.853c1.483,0.352,2.063,1.669,2.56,2.81
	c3.338,7.657,8.073,14.56,11.8,22.003c2.654,4.698,5.729,9.215,7.838,14.146C441.745,450.46,444.035,451.248,447.879,448.764z"/>
<path fill-rule="evenodd" clip-rule="evenodd" fill="#FFFFFF" d="M388.983,384.879c-1.46-6.157-5.941-10.225-12.136-11.011
	c-0.929-0.118-2.327,0.221-2.362-1.073c-0.021-0.761,0.848-1.9,1.608-2.273c7.227-3.546,14.451-7.114,21.829-10.326
	c2.148-0.935,4.516-0.59,3.088,3.046c-0.59,1.503-1.356,3.053-0.998,4.79c-0.452,4.573,1.905,8.111,4.07,11.835
	c4.3,7.396,8.329,14.948,12.432,22.457c0.385,0.705,0.502,1.557,0.744,2.34c-0.167,0.176-0.335,0.351-0.502,0.527
	c-2.24-0.11-3.039-1.885-3.715-3.521c-1.528-3.698-3.705-6.997-5.918-10.284c-2.048-3.744-3.019-8.023-6.167-11.247
	c-2.293-2.348-4.358-2.414-7.029-0.841c-2.902,1.708-2.424,3.86-1.446,6.395c1.14,2.955,3.5,5.799,1.297,9.249
	C389.36,392.931,388.639,389.159,388.983,384.879z"/>
<path fill-rule="evenodd" clip-rule="evenodd" fill="#FFFFFF" d="M262.053,495.88c5.407,1.147,10.906,0.813,16.372,1.021
	c3.512,0.133,6.866,0.645,9.936,2.64c2.99,1.941,6.63,1.875,9.693,0.939c10.004-3.057,19.954-1.618,29.955-0.521
	c-0.115,0.12-0.24,0.354-0.343,0.344c-12.425-1.154-24.748,2.428-37.078,1.201c-9.674-0.963-19.201-3.303-28.89-4.629
	c-7.327-1.003-14.961-2.931-21.967-5.651c-3.909-1.519-8.673-1.716-11.784-5.207c-0.364-0.487-0.333-0.947,0.093-1.381
	c4.28-0.423,7.572,2.628,11.551,3.28c5.998,1.507,11.663,4.236,17.921,4.778C259.605,492.875,261.256,493.798,262.053,495.88z"/>
<path fill-rule="evenodd" clip-rule="evenodd" fill="#FFFFFF" d="M544.974,375.007c-0.025,0.624-0.052,1.248-0.077,1.871
	c-4.335,4.352-7.038,4.944-13.236,1.724c-6.624-3.441-13.782-5.283-20.695-7.858c-1.347-0.501-2.394-2.032-3.732-2.287
	c-3.712-0.709-7.243-1.194-10.539,2.151c-4.679,4.749-9.615,9.368-15.78,12.3c5.449-6.211,12.559-10.573,18.338-16.432
	c1.382-1.403,3.535-0.966,5.239-0.349c6.883,2.49,13.72,5.106,20.559,7.717c3.478,1.327,6.923,2.74,10.385,4.107
	C539.398,379.516,542.548,378.431,544.974,375.007z"/>
<path fill-rule="evenodd" clip-rule="evenodd" fill="#FFFFFF" d="M432.008,431.875c-5.255-6.136-8.102-13.685-12.074-20.574
	c-0.651-1.13-1.316-2.251-1.974-3.375c-0.962-0.688-1.981-1.349-1.257-2.793c0.186-0.155,0.37-0.311,0.554-0.468
	C423.456,413.04,428.24,422.182,432.008,431.875z"/>
<path fill-rule="evenodd" clip-rule="evenodd" fill="#FFFFFF" d="M227.973,484.924c-0.008,0.363-0.017,0.728-0.025,1.092
	c-3.877,1.498-6.115-2.221-9.212-3.199c-1.904-0.601-4.212-1.418-6.033-2.742c5.132-1.033,8.366,2.865,12.371,4.761
	C226.058,484.245,227.033,484.022,227.973,484.924z"/>
<path fill-rule="evenodd" clip-rule="evenodd" fill="#FFFFFF" d="M193.043,466.868c4.307,1.062,6.898,4.406,9.791,7.352
	c-3.858-1.175-6.52-4.292-9.964-6.138C192.44,467.607,192.499,467.203,193.043,466.868z"/>
<path fill-rule="evenodd" clip-rule="evenodd" fill="#FFFFFF" d="M193.043,466.868c-0.058,0.404-0.115,0.809-0.173,1.213
	c-2.484-2.571-6.523-3.331-8.104-6.955c-0.001,0,0.338-0.324,0.338-0.324c3.474,0.391,5.947,2.295,7.787,5.155
	C192.942,466.262,192.993,466.565,193.043,466.868z"/>
<path fill-rule="evenodd" clip-rule="evenodd" fill="#FFFFFF" d="M172.958,449.944c2.276,1.465,4.391,3.069,5.086,5.896
	C175.813,454.338,173.603,452.816,172.958,449.944z"/>
<path fill-rule="evenodd" clip-rule="evenodd" fill="#FFFFFF" d="M447.218,53.715c17.548,0.332,35.242,2.004,51.831,9.467
	c22.281,10.023,31.795,29.367,25.875,53.071c-5.488,21.978-13.828,43.026-21.807,64.176c-10.615,28.137-21.023,56.342-32.557,84.138
	c-10.915,26.305-29.258,45.286-54.658,56.962c-37.702,17.332-77.011,21.551-117.343,10.279
	c-16.266-4.545-29.272-13.405-35.186-30.317c-3.654-10.452-2.154-20.668,0.838-30.901c8.826-30.177,20.72-59.261,31.592-88.708
	c6.619-17.925,13.905-35.591,20.958-53.348c12.447-31.333,35.354-51.324,66.041-63.367
	C403.369,57.096,424.867,54.047,447.218,53.715z M373.301,282.649c3.522-5.869,6.279-12.101,8.685-18.471
	c15.888-42.085,31.719-84.191,47.511-126.313c3.435-9.163,7.224-18.224,9.229-27.859c1.351-6.484-1.063-9.469-7.697-9.663
	c-7.252-0.211-12.926,2.659-16.734,8.894c-3.389,5.55-5.916,11.524-8.199,17.591c-12.982,34.493-26.028,68.963-38.84,103.519
	c-6.115,16.493-13.094,32.693-17.578,49.759c-2.104,8.009,0.258,11.052,8.284,11.075
	C364.627,291.129,369.808,288.467,373.301,282.649z"/>
<path fill-rule="evenodd" clip-rule="evenodd" fill="#6C8CD8" d="M1270.92,208.776c-0.213,11.19-3.671,20.961-7.029,30.688
	c-15.585,45.144-32.026,89.965-50.694,133.948c-12.922,30.444-36.632,49.082-66.783,59.867
	c-33.024,11.813-66.975,13.882-101.169,5.308c-14.569-3.654-27.394-10.447-34.906-24.497c-5.257-9.835-6.458-20.134-3.752-30.933
	c6.04-24.112,15.184-47.182,23.902-70.375c9.777-26.006,19.636-51.98,30.039-77.757c12.16-30.134,33.424-50.643,63.11-62.435
	c37.193-14.774,75.349-17.684,113.86-5.556c17.501,5.512,29.629,16.944,32.869,35.963
	C1270.729,205.122,1270.784,207.295,1270.92,208.776z M1117.425,388.461c2.31-4.225,4.58-8.519,6.337-12.991
	c19.212-48.879,37.152-98.24,55.578-147.417c1.627-4.343,3.089-8.799,3.542-13.465c0.516-5.3-1.046-7.576-6.287-8.143
	c-7.081-0.765-13.181,1.47-17.378,7.505c-3.049,4.386-5.327,9.237-7.205,14.217c-14.836,39.343-29.622,78.705-44.37,118.08
	c-5.011,13.378-10.715,26.528-13.979,40.5c-1.787,7.643,0.585,10.406,8.54,10.379C1108.88,397.059,1114.175,394.41,1117.425,388.461
	z"/>
<path fill-rule="evenodd" clip-rule="evenodd" fill="#6C8CD8" d="M1944.751,394.548c0.319-11.547,3.993-21.991,7.589-32.308
	c15.44-44.308,31.571-88.37,49.839-131.605c14.154-33.499,40.851-52.684,74.498-62.947c30.313-9.245,61.212-10.733,92.217-3.326
	c9.933,2.373,19.337,6.225,27.099,13.265c13.277,12.041,17.245,26.89,12.835,43.961c-6.757,26.147-16.902,51.157-26.324,76.396
	c-9.017,24.155-18.259,48.217-28.043,72.085c-13.81,33.687-39.527,53.425-72.882,64.862c-18.154,6.226-37.003,8.625-56.015,8.643
	c-19.53,0.019-39-1.747-56.743-11.221C1953.613,424.234,1945.531,411.496,1944.751,394.548z M2057.298,388.108
	c2.957-5.045,5.417-10.315,7.479-15.771c16.22-42.958,32.465-85.905,48.587-128.899c3.324-8.865,6.972-17.644,8.95-26.966
	c1.439-6.779-1.247-10.329-8.177-10.239c-6.73,0.087-12.283,2.752-15.958,8.633c-3.546,5.675-6.127,11.821-8.471,18.057
	c-12.173,32.385-24.383,64.756-36.412,97.195c-6.825,18.399-14.517,36.496-19.826,55.432c-2.333,8.325,0.039,11.536,8.244,11.559
	C2048.656,397.139,2053.788,394.099,2057.298,388.108z"/>
<path fill-rule="evenodd" clip-rule="evenodd" fill="#FFFFFF" d="M34.807,331.888c7.981-21.281,15.62-41.644,23.255-62.009
	c25.669-68.473,51.364-136.937,76.931-205.447c1.292-3.463,2.833-4.815,6.692-4.77c36.316,0.432,72.643-0.572,108.953,0.63
	c12.155,0.402,24.275,1.563,35.931,5.426c21.613,7.162,28.938,19.301,23.366,41.22c-6.315,24.842-15.718,48.667-26.391,71.968
	c-11.039,24.098-31.427,35.136-56.167,40.048c-18.757,3.723-37.756,3.747-56.745,3.437c-4.064-0.065-5.767,1.238-7.142,4.958
	c-12.326,33.343-24.924,66.586-37.238,99.935c-1.322,3.581-2.972,4.722-6.761,4.696c-26.495-0.176-52.991-0.093-79.487-0.093
	C38.528,331.888,37.053,331.888,34.807,331.888z M217.695,156.806c2.908-7.238,5.545-14.584,8.357-21.861
	c2.095-5.424,4.396-10.782,5.292-16.579c0.899-5.818-1.017-8.867-6.647-10.409c-3.704-1.015-7.549-1.107-11.359-1.471
	c-3.488-0.333-4.89,1.1-6.041,4.247c-7.411,20.273-14.94,40.504-22.693,60.648c-1.269,3.295-0.59,4.147,2.541,4.134
	c1.325-0.006,2.65-0.001,3.976-0.001C204.75,176.045,212.9,168.737,217.695,156.806z"/>
<path fill-rule="evenodd" clip-rule="evenodd" fill="#6C8CD8" d="M922.37,328.785c-3.125,0.403-9.26-2.238-12.709,0.913
	c-3.302,3.016-4.014,8.907-5.763,13.573c-11.09,29.587-22.231,59.155-33.139,88.81c-1.599,4.351-3.638,5.998-8.5,5.944
	c-25.981-0.288-51.968-0.134-77.953-0.137c-5.448-0.001-5.43-0.005-3.449-5.292c30-80.042,59.994-160.086,89.996-240.128
	c2.861-7.632,5.9-15.2,8.571-22.896c0.983-2.832,2.363-3.84,5.375-3.827c35.643,0.162,71.291-0.035,106.931,0.378
	c14.127,0.164,28.214,1.659,41.714,6.527c17.661,6.369,25.458,18.197,21.233,36.347c-6.764,29.06-17.015,57.026-31.38,83.272
	c-9.434,17.235-25.462,25.692-43.678,30.726C961.462,328.015,942.818,328.336,922.37,328.785z M970.719,214.69
	c-5.093-2.063-10.399-1.951-15.721-1.986c-2.184-0.015-2.692,1.55-3.286,3.136c-7.744,20.692-15.455,41.396-23.299,62.051
	c-0.975,2.566-0.14,3.408,2.175,3.483c9.968,0.324,21.16-0.611,27.037-10.986c7.828-13.817,12.469-28.923,17.334-43.923
	c0.402-1.24,0.35-2.629,0.654-5.161C975.704,218.82,974.351,216.162,970.719,214.69z"/>
<path fill-rule="evenodd" clip-rule="evenodd" fill="#FFFFFF" d="M406.889,446.042c-5.239-1.951-8.639,2.431-12.764,3.976
	c-12.488,4.674-24.82,9.799-37.031,15.16c-3.866,1.697-7.585,3.869-11.374,5.813c-9.569,4.91-20.05,7.435-29.729,11.984
	c-1.318-1.562-0.548-3.215-0.022-4.717c1.755-5.012,3.711-9.953,5.353-15.005c0.856-2.637,2.93-3.848,5.298-4.874
	c6.058-2.622,12.435-4.52,17.314-9.516c2.175-2.226,5.946-2.1,8.893-2.625c4.692-0.834,9.354-1.931,14.077-2.589
	c5.247-0.73,9.984-3.046,15-4.459c5.039-3.142,10.451-5.448,16.14-7.137c5.269,1,5.204,6.815,8.593,9.583
	C407.895,442.666,408.364,444.482,406.889,446.042z"/>
<path fill-rule="evenodd" clip-rule="evenodd" fill="#FFFFFF" d="M382.895,439.752c-0.367,0.537-0.753,1.553-1.097,1.54
	c-5.411-0.225-9.784,3.343-15.129,3.827c-7.082,0.641-14.052,2.537-21.057,3.956c-0.553,0.112-1.32,0.637-1.451,1.116
	c-0.741,2.715-3.21,3.248-5.237,4.214c-5.081,2.421-12.137,3.342-14.926,7.309c-4.218,5.997-5.486,14.069-8.007,21.259
	c-1.929,3.244-4.898,4.329-8.461,3.832c-1.077-0.15-2.928-0.848-2.967-1.399c-0.445-6.27-3.818-2.154-5.705-1.5
	c-7.636,2.648-15.117,5.746-22.773,8.326c-3.065,1.032-6.43,1.217-9.675,1.662c-1.689,0.231-3.245,0.573-4.356,1.985
	c-1.972-1.203-3.956-1.99-6.407-2.155c-5.866-0.396-11.165-3.117-16.727-4.781c0.471-1.456,1.732-1.897,2.996-2.342
	c13.274-4.668,26.526-9.395,39.441-15.006c1.571-0.682,3.167-1.076,4.61,0.33c-0.364,1.982-0.729,3.964-1.093,5.946
	c-0.954,5.972-0.13,6.668,5.808,4.901c0.263-0.388,0.53-0.759,0.776-1.153c3.592-10.698,7.553-21.251,11.362-31.859
	c0.72-2.005,1.153-4.205,3.17-5.477c3.007-1.419,6.481-1.379,9.417-3.062c1.132-0.647,2.438-1.351,3.642-0.168
	c1.095,1.077,0.797,2.452,0.424,3.738c-1.432,4.928-3.274,9.724-4.762,14.633c-1.483,4.896-3.746,9.562-4.368,14.711
	c-0.165,2.192-1.151,4.151-1.76,6.218c-0.234,0.795-0.456,1.725,0.371,2.28c0.967,0.652,1.926,0.184,2.731-0.443
	c1.665-1.299,2.299-3.226,2.907-5.125c2.584-8.072,5.568-16.009,7.955-24.151c1.88-6.416,3.993-7.969,10.496-7.195
	c10.607,1.263,20.653-1.069,30.888-3.31C370.1,441.058,376.252,438.21,382.895,439.752z"/>
<path fill-rule="evenodd" clip-rule="evenodd" fill="#FFFFFF" d="M416.703,405.133c0.419,0.931,0.838,1.862,1.257,2.793
	c-3.8,0.073-6.698,2.584-10.077,3.802c-1.172,0.424-2.561,2.127-1.616,3.16c3.042,3.328,2.135,8.112,5.021,11.614
	c3.261,3.957,3.157,10.021,7.576,13.489c0.087,1.294,0.175,2.587,0.264,3.88c0.322,0.522,0.227,0.951-0.285,1.286
	c-2.347-0.076-2.744-2.028-3.553-3.636c-6.03-11.978-11.646-24.152-17.364-36.28c-0.992-2.401-1.289-4.961-1.72-7.495
	c1.618-5.091,5.494-7.333,11.736-6.797C412.201,394.851,412.964,400.911,416.703,405.133z"/>
<path fill-rule="evenodd" clip-rule="evenodd" fill="#FFFFFF" d="M418.829,445.135c0.099-0.421,0.198-0.842,0.298-1.263
	c4.013,3.297,4.386,9.247,9.158,12.169c1.893,1.16,1.796,3.438-0.262,5.438c-4.255,4.132-10.015,3.489-12.813-1.537
	c-2.625-4.716-5.535-9.274-8.32-13.902c-1.764-5.23-4.793-9.593-9.017-13.137c2.379-2.061,3.692-1.995,5.442,0.787
	c5.007,7.96,9.758,16.075,14.173,24.381c0.625,1.175,1.012,2.52,2.36,3.052c1.652,0.655,3.317,0.583,4.594-0.778
	c1.362-1.453,0.405-2.604-0.587-3.878C421.252,453.124,418.504,449.796,418.829,445.135z"/>
<path fill-rule="evenodd" clip-rule="evenodd" fill="#FFFFFF" d="M536.895,367.004c-6.422-0.258-11.974-3.548-17.965-5.085
	c-4.841-1.242-9.044-4.271-14.276-4.342c4.775-5.757,12.242-7.059,19.189-6.121c7.743,1.044,14.536,4.966,22.228,5.811
	c3.385,0.371,6.118,3.442,9.871,2.729c-1.705,1.548-3.797,1.295-5.528,0.545c-5.579-2.415-8.974,2.281-13.303,3.844
	C535.921,364.813,536.678,366.091,536.895,367.004z"/>
<path fill-rule="evenodd" clip-rule="evenodd" fill="#FFFFFF" d="M285.965,471.926c-1.289,0.183-2.751,0.031-3.839,0.599
	c-11.701,6.103-24.545,9.272-36.638,14.362c-2.105,0.886-4.375,1.381-6.569,2.057c-3.848-0.801-7.425-2.333-10.946-4.019
	c-0.967-0.028-1.935-0.058-2.901-0.087c3.578-4.107,8.981-4.56,13.527-6.715c14.463-6.858,30-10.975,44.667-17.337
	c2.179-0.945,5.035-2.689,6.667,1.112C288.127,465.049,288.148,468.923,285.965,471.926z"/>
<path fill-rule="evenodd" clip-rule="evenodd" fill="#FFFFFF" d="M328.01,421.011c-1.633,4.354-2.239,9.098-4.943,13.047
	c-1.922-2.019-0.485-4.055,0.043-6.032c0.853-3.189,2.409-6.203,2.493-9.58c0.04-1.607,0.7-3.726-0.897-4.615
	c-1.707-0.951-2.875,1.029-4.179,1.931c-1.815,1.255-2.902,3.804-5.75,3.225c-0.36-0.729-0.338-1.435,0.111-2.117
	c0,0-0.014,0-0.015,0c2.412-0.737,2.321-3.099,2.904-4.852c1.923-5.774,4.887-11.082,7.164-16.684
	c1.51-3.713,4.69-4.836,7.841-6.153c1.034-0.432,2.396-0.621,3.321,0.203c1.202,1.073-0.136,2.083-0.429,3.099
	c-2.558,8.851-6.316,17.354-7.696,26.545C327.881,419.673,327.994,420.349,328.01,421.011z"/>
<path fill-rule="evenodd" clip-rule="evenodd" fill="#FFFFFF" d="M219.971,442.922c4.85-5.792,11.693-9.19,17.147-14.265
	c1.292-1.202,2.611-0.815,3.946,0.385c6.42,5.776,13.928,8.917,22.339,11.249c7.858,2.179,15.646,4.334,23.702,5.549
	c-8.181,0.814-15.851-0.919-23.323-4.244c-3.681-1.637-7.449-0.476-11.063,0.967c-8.739,3.489-17.46,7.026-26.267,10.338
	c-9.107,3.424-18.3,6.626-27.471,9.877c-2.192,0.777-4.396,1.469-6.088,3.179c-2.597-1.719-5.193-3.436-7.789-5.154
	c-3.426-4.649-3.351-4.478,2.175-6.893c4.244-1.854,8.024-3.737,11.896,0.927c1.527,1.84,4.683,1.784,6.458,0.137
	C210.224,450.716,215.976,447.858,219.971,442.922z"/>
<path fill-rule="evenodd" clip-rule="evenodd" fill="#FFFFFF" d="M285.055,480.077c0.559,4.445,3.548,4.223,6.781,3.53
	c-2.56,2.492-5.703,1.994-7.93,0.268c-2.292-1.777-0.583-4.164,0.966-6.003C284.933,478.607,284.994,479.342,285.055,480.077z"/>
<path fill-rule="evenodd" clip-rule="evenodd" fill="#FFFFFF" d="M407.942,390.949c-3.873,1.919-9.39,1.239-10.896,6.898
	c-2.458,0.548-1.157-2.907-3.098-2.909l0,0.001c-0.012-3.727-1.743-6.925-3.172-10.207c-1.017-2.332-1.549-4.646,1.39-5.811
	c2.717-1.077,5.081-4.59,8.646-0.78C404.326,381.896,406.337,386.253,407.942,390.949z"/>
<path fill-rule="evenodd" clip-rule="evenodd" fill="#FFFFFF" d="M314.957,418.925c3.022-1.751,4.904-4.81,7.93-6.656
	c3.035-1.853,3.809-0.687,4.057,2.107c0.357,4.02-0.454,7.818-1.792,11.624c-0.913,2.595-2.416,5.115-2.084,8.059
	c-4.575,13.373-8.42,26.999-13.995,40.021c1.3-8.362,4.989-16.003,7.263-24.07c0.783-2.782,2.406-5.373,2.25-9.081
	c-4.037,2.871-8.195,3.862-12.578,4.029c-0.787-0.993-0.638-2.03-0.141-3.082c0.224-1.053-0.11-2.283,0.978-3.059
	c1.622-2.399,1.795-5.371,3.111-7.891l0,0C311.819,427.008,312.141,422.447,314.957,418.925z"/>
<path fill-rule="evenodd" clip-rule="evenodd" fill="#FFFFFF" d="M305.865,441.875c0.047,1.027,0.094,2.055,0.141,3.082
	c-3.895,10.888-7.762,21.786-11.714,32.653c-0.655,1.799-0.644,3.937-2.365,5.271c1.418-9.373,5.599-17.873,8.567-26.749
	C302.101,451.328,303.285,446.326,305.865,441.875z"/>
<path fill-rule="evenodd" clip-rule="evenodd" fill="#FFFFFF" d="M393.949,394.938c2.184-0.255,1.703,2.325,3.098,2.91
	c1.245,2.226,1.402,4.728,1.811,7.167C395.234,402.623,395.919,398.134,393.949,394.938z"/>
<path fill-rule="evenodd" clip-rule="evenodd" fill="#FFFFFF" d="M314.957,418.925c-1.938,3.887-2.198,8.475-5.002,12
	c0.551-5.069,2.266-9.729,4.934-14.055C314.911,417.555,314.934,418.239,314.957,418.925z"/>
<path fill-rule="evenodd" clip-rule="evenodd" fill="#FFFFFF" d="M309.954,430.925c-0.403,2.88-0.648,5.823-3.111,7.891
	C307.459,436.02,307.76,433.1,309.954,430.925z"/>
<line fill-rule="evenodd" clip-rule="evenodd" fill="#FFFFFF" x1="153.5" y1="411.435" x2="207.346" y2="394.878"/>
<path fill-rule="evenodd" clip-rule="evenodd" fill="#FFFFFF" d="M583.591-1044.088c10.326-27.533,20.209-53.878,30.086-80.225
	c33.21-88.588,66.454-177.165,99.531-265.802c1.672-4.48,3.666-6.229,8.659-6.17c46.985,0.558,93.983-0.741,140.96,0.815
	c15.726,0.52,31.406,2.022,46.487,7.021c27.962,9.266,37.439,24.971,30.23,53.329c-8.815,34.675-23.848,41.938-37.811,72.423
	c-14.281,31.177-36.992,66.145-69,72.5c-24.268,4.816-48.847,4.848-73.415,4.446c-5.258-0.085-7.461,1.602-9.24,6.415
	c-15.947,43.139-32.247,86.147-48.178,129.293c-1.711,4.633-3.846,6.109-8.747,6.076c-34.278-0.228-68.559-0.12-102.838-0.12
	C588.406-1044.088,586.497-1044.088,583.591-1044.088z M937.941-1329.33c2.667-2.979-115.754,53.327-110.517,39.772
	c2.71-7.017,9.283-23.278,10.442-30.778c1.163-7.527-1.316-11.471-8.6-13.466c-4.792-1.313-9.766-1.432-14.696-1.903
	c-4.513-0.432-6.327,1.423-7.815,5.494c-9.588,26.229-19.33,52.403-29.36,78.465c-1.642,4.264-0.763,5.366,3.288,5.349
	c1.714-0.008,37.087,6.688,35.683-11.43C929.917-1274.013,893.37-1273.931,937.941-1329.33z M932.31-1322.066l3.788-1.629
	l1.843-5.635"/>
<g>
	<path fill="none" d="M1529.92-1538.738c-7.047-2.885-14.39-2.729-21.755-2.778c-3.021-0.021-3.724,2.169-4.546,4.387
		c-10.717,28.943-21.387,57.903-32.242,86.793c-1.348,3.59-0.193,4.768,3.012,4.872c13.792,0.453,29.28-0.855,37.413-15.367
		c10.833-19.327,17.256-40.456,23.987-61.437c0.557-1.735,0.484-3.678,0.905-7.218
		C1536.818-1532.961,1534.945-1536.679,1529.92-1538.738z"/>
	<path fill="#6C8CD8" d="M896.161-989.723c15.094-41.48,26.863-72.859,42.211-114.244c2.42-6.526,3.407-14.766,7.975-18.985
		c4.773-4.408,13.264-0.713,17.586-1.277c28.299-0.626,54.1-1.077,79.225-8.096c25.209-7.041,47.39-18.87,60.444-42.978
		c19.879-36.713,34.064-75.83,43.425-116.477c5.846-25.388-4.943-41.932-29.383-50.841c-18.683-6.81-38.177-8.901-57.727-9.129
		c-49.32-0.578-6.574,0.194-55.899-0.033c-0.89-0.778-1.716,0.105-2.573,0.667c-3.117,1.036-8.594,3.197-15.144,5.894
		c-2.269,0.749-4.506,1.559-6.622,2.614c-0.737,0.368-1.48,0.723-2.225,1.075c-16.656,7.017-36.08,15.536-42.477,18.326
		c-2.21,0.941-4.417,1.894-6.63,2.826c-12.916,5.443-25.786,10.996-38.659,16.537v0c-1.15,0.495-2.108,0.906-2.897,1.245
		c-3.648,1.569-7.297,3.139-10.948,4.702c-9.013,3.859-17.913,7.986-26.996,11.7c-17.437,7.13-34.705,14.667-52.01,22.114
		c-2.316,0.997-4.93,1.474-7.396,3.713c5.898,1.549,10.926-0.465,15.87-1.164c9.824-1.39,19.726-2.141,29.499-3.758
		c4.104-0.678,8.241-0.962,12.333-1.668c5.784-0.998,11.601-1.891,17.439-2.459c4.228-0.412,5.136,1.121,3.09,5.044
		c-2.545,4.884-4.783,9.879-6.853,14.985c-4.813,11.873-10.774,23.235-15.134,35.341c-3.468,9.632-8.144,18.831-12.31,28.21
		c-3.231,7.273-6.557,14.505-9.75,21.794c-8.629,19.7-17.402,39.341-25.744,59.161c-5.646,13.416-11.816,26.595-17.543,39.975
		c-9.522,22.243-23.547,45.815-32.666,68.242 M1036.711-1267.346c-6.731,20.98-13.154,42.109-23.987,61.437
		c-8.133,14.512-23.621,15.82-37.413,15.367c-3.205-0.104-4.359-1.282-3.012-4.872c10.855-28.89,21.525-57.85,32.242-86.793
		c0.822-2.218,1.524-4.408,4.546-4.387c7.365,0.049,14.708-0.107,21.755,2.778c5.025,2.059,6.898,5.777,6.774,9.253
		C1037.195-1271.024,1037.268-1269.082,1036.711-1267.346z"/>
</g>
</svg>
